<svg width="76" height="80" viewBox="0 0 76 80" fill="none" xmlns="http://www.w3.org/2000/svg">
<g clip-path="url(#clip0_17_523)">
<path d="M0 69.6848C0 75.3823 4.38738 80 9.79948 80H66.2005C71.6132 80 76 75.3817 76 69.6848V10.3152C76 4.61766 71.6126 0 66.2005 0H9.79948C4.38678 0 0 4.61829 0 10.3152V69.6848Z" fill="#563D7C"/>
<path d="M31.5155 35.3869V24.0577H40.9893C41.8916 24.0577 42.7616 24.1368 43.5995 24.2951C44.4373 24.4534 45.1784 24.7361 45.8229 25.1431C46.4674 25.5502 46.983 26.1155 47.3697 26.8391C47.7563 27.5627 47.9497 28.4899 47.9497 29.6205C47.9497 31.6557 47.3697 33.1256 46.2096 34.0301C45.0495 34.9346 43.5673 35.3869 41.7627 35.3869H31.5155ZM21.3972 15.7812V64.2188H43.6961C45.7585 64.2188 47.7671 63.9474 49.722 63.4047C51.6769 62.862 53.417 62.0253 54.9423 60.8946C56.4675 59.7639 57.6813 58.3054 58.5835 56.519C59.4858 54.7325 59.9369 52.6182 59.9369 50.1759C59.9369 47.1458 59.2388 44.5566 57.8424 42.4083C56.446 40.26 54.33 38.7563 51.4943 37.897C53.5566 36.8568 55.1141 35.5226 56.1668 33.8944C57.2194 32.2663 57.7457 30.2311 57.7457 27.7889C57.7457 25.5275 57.3913 23.628 56.6823 22.0903C55.9734 20.5526 54.9745 19.3202 53.6855 18.3931C52.3966 17.4659 50.8498 16.7988 49.0453 16.3918C47.2407 15.9848 45.2429 15.7812 43.0517 15.7812H21.3972ZM31.5155 55.9423V42.6457H42.5361C44.7273 42.6457 46.4889 43.1772 47.8208 44.24C49.1527 45.3028 49.8187 47.0779 49.8187 49.5654C49.8187 50.8317 49.6146 51.8719 49.2064 52.686C48.7982 53.5001 48.2504 54.1446 47.563 54.6194C46.8756 55.0943 46.0807 55.4335 45.1784 55.637C44.2762 55.8406 43.3309 55.9423 42.3427 55.9423H31.5155Z" fill="white"/>
</g>
<defs>
<clipPath id="clip0_17_523">
<rect width="76" height="80" fill="white"/>
</clipPath>
</defs>
</svg>
