<svg width="70" height="80" viewBox="0 0 70 80" fill="none" xmlns="http://www.w3.org/2000/svg">
<path d="M37.4062 40C37.4062 33.555 41.8644 28.335 47.3594 28.335C52.8587 28.335 57.3125 33.55 57.3125 40C57.3125 46.445 52.8587 51.665 47.3594 51.665C41.8687 51.665 37.4062 46.45 37.4062 40Z" fill="#1ABCFE"/>
<path d="M17.5 63.335C17.5 56.89 21.9581 51.665 27.4531 51.665H37.4063V63.335C37.4063 69.775 32.9481 75 27.4531 75C21.9581 75 17.5 69.775 17.5 63.335Z" fill="#0ACF83"/>
<path d="M37.4062 5V28.335H47.3594C52.8587 28.335 57.3125 23.11 57.3125 16.665C57.3125 10.225 52.8587 5 47.3594 5H37.4062Z" fill="#FF7262"/>
<path d="M17.5 16.665C17.5 23.11 21.9581 28.335 27.4531 28.335H37.4063V5H27.4531C21.9581 5 17.5 10.225 17.5 16.665Z" fill="#F24E1E"/>
<path d="M17.5 40C17.5 46.445 21.9581 51.665 27.4531 51.665H37.4063V28.335H27.4531C21.9581 28.335 17.5 33.55 17.5 40Z" fill="#A259FF"/>
</svg>
