<svg width="76" height="80" viewBox="0 0 76 80" fill="none" xmlns="http://www.w3.org/2000/svg">
<path d="M6.14023 43.533C4.28659 41.5818 4.28659 38.4182 6.14023 36.467L34.6436 6.4634C36.4973 4.5122 39.5027 4.5122 41.3564 6.4634L69.8597 36.467C71.7134 38.4182 71.7134 41.5818 69.8597 43.533L41.3564 73.5365C39.5027 75.4878 36.4973 75.4878 34.6436 73.5365L6.14023 43.533Z" fill="#EE513B"/>
<path d="M28.8536 12.6538L25.9673 15.6922L33.4222 23.5394C33.1206 24.2205 32.9522 24.98 32.9522 25.781C32.9522 28.055 34.3095 29.9953 36.2178 30.753V49.9495C34.3095 50.7073 32.9522 52.6475 32.9522 54.9215C32.9522 57.8555 35.2118 60.234 37.9991 60.234C40.7864 60.234 43.0459 57.8555 43.0459 54.9215C43.0459 52.86 41.9304 51.0725 40.2999 50.192V30.7793L47.4261 38.2805C47.1392 38.9478 46.9796 39.6885 46.9796 40.4685C46.9796 43.4025 49.2392 45.781 52.0265 45.781C54.8138 45.781 57.0734 43.4025 57.0734 40.4685C57.0734 37.5345 54.8138 35.156 52.0265 35.156C51.4848 35.156 50.9632 35.2458 50.474 35.412L42.8205 27.3558C42.9671 26.8583 43.0459 26.3293 43.0459 25.781C43.0459 22.847 40.7864 20.4685 37.9991 20.4685C37.4782 20.4685 36.9759 20.5515 36.503 20.7058L28.8536 12.6538Z" fill="white"/>
</svg>
