<svg width="186" height="162" viewBox="0 0 186 162" fill="none" xmlns="http://www.w3.org/2000/svg">
<path d="M79.1616 140.503C102.031 140.503 120.57 138.745 120.57 136.577C120.57 134.409 102.031 132.651 79.1616 132.651C56.2925 132.651 37.7534 134.409 37.7534 136.577C37.7534 138.745 56.2925 140.503 79.1616 140.503Z" fill="#E6E7E8"/>
<path d="M148.247 99.7218H118.803V127.58H148.247V99.7218Z" fill="white"/>
<path d="M148.247 127.856H118.803C118.741 127.856 118.682 127.827 118.638 127.777C118.595 127.726 118.57 127.657 118.57 127.586V99.7218C118.57 99.6502 118.595 99.5815 118.638 99.5309C118.682 99.4802 118.741 99.4518 118.803 99.4518H148.247C148.308 99.4532 148.366 99.4821 148.41 99.5324C148.453 99.5827 148.478 99.6506 148.479 99.7218V127.586C148.478 127.657 148.453 127.725 148.41 127.775C148.366 127.826 148.308 127.854 148.247 127.856ZM119.035 127.316H148.014V99.9918H119.04L119.035 127.316Z" fill="#D1D3D4"/>
<path d="M148.247 103.572H118.803C118.741 103.572 118.682 103.544 118.638 103.493C118.595 103.442 118.57 103.374 118.57 103.302C118.57 103.23 118.595 103.162 118.638 103.111C118.682 103.06 118.741 103.032 118.803 103.032H148.247C148.308 103.032 148.367 103.06 148.411 103.111C148.455 103.162 148.479 103.23 148.479 103.302C148.478 103.373 148.453 103.441 148.41 103.491C148.366 103.542 148.308 103.571 148.247 103.572Z" fill="#D1D3D4"/>
<path d="M67.1181 47.6713C66.4831 47.7208 65.8495 47.5531 65.2957 47.1889C64.7419 46.8246 64.2922 46.2799 64.0022 45.6219C63.7122 44.964 63.5947 44.2217 63.6642 43.487C63.7337 42.7523 63.9872 42.0574 64.3932 41.4883C62.6169 40.5379 61.6776 38.0971 61.8078 35.8345C61.938 33.5719 62.9657 31.5145 64.2491 29.7757C65.3046 28.3555 66.6299 27.0757 68.2155 26.7247C68.5156 26.6899 68.8083 26.5949 69.0804 26.4439C69.2945 26.2689 69.4803 26.0514 69.6291 25.8013C70.787 24.0841 72.2145 22.5073 74.0001 21.8161C75.7857 21.1249 77.9712 21.5191 79.1663 23.2093C79.7636 22.607 80.5044 22.2296 81.2905 22.127C82.0766 22.0243 82.871 22.2013 83.5686 22.6345C84.2662 23.0676 84.8342 23.7365 85.1972 24.5527C85.5603 25.3689 85.7014 26.2939 85.6019 27.2053C86.8599 27.4209 88.0396 28.0462 89.0041 29.0087C89.9687 29.9711 90.6786 31.2312 91.0517 32.6431C91.7166 35.4835 90.5867 38.8207 88.3314 40.1653C88.071 40.3219 87.7595 40.5271 87.7688 40.8619C87.7944 41.0639 87.8722 41.2522 87.992 41.4019C88.7174 42.6061 88.3547 44.3503 87.527 45.4411C86.6993 46.5319 85.4624 47.1097 84.272 47.6605C84.5368 47.9688 84.7132 48.3645 84.7773 48.7935C84.8414 49.2226 84.7899 49.6642 84.63 50.0581C84.285 50.8465 83.7482 51.5 83.0862 51.9373C80.5008 53.8759 77.3016 53.2711 74.4047 53.3413C71.7309 53.4061 69.0758 51.4243 67.3041 49.1779C66.96 48.7513 66.6857 47.9737 67.1181 47.6713Z" fill="white"/>
<path d="M77.6085 53.6489C77.1435 53.6489 76.6785 53.6489 76.2507 53.6489C75.6462 53.6489 75.0138 53.6165 74.4186 53.6489C71.9913 53.6975 69.3036 52.1153 67.1367 49.3991C66.9842 49.2215 66.8644 49.0098 66.7845 48.7768C66.7045 48.5439 66.6662 48.2945 66.6717 48.0437C66.6691 48.0241 66.6691 48.004 66.6717 47.9843C66.0457 47.9494 65.4395 47.7182 64.9175 47.3152C64.3956 46.9122 63.9775 46.3525 63.7075 45.6956C63.4376 45.0387 63.3259 44.3092 63.3844 43.5845C63.4429 42.8598 63.6694 42.1671 64.0398 41.5799C62.4356 40.5539 61.4358 38.2373 61.5753 35.8181C61.6916 33.7499 62.5332 31.6601 64.0724 29.5973C65.4116 27.8045 66.7508 26.7785 68.1737 26.4599L68.3318 26.4275C68.5555 26.4173 68.7733 26.3417 68.9652 26.2077C69.157 26.0736 69.3166 25.8855 69.4292 25.6607C70.8893 23.5007 72.354 22.1723 73.9257 21.5621C75.8648 20.8115 77.9898 21.3353 79.1942 22.8311C79.828 22.2629 80.5901 21.92 81.3882 21.8442C82.1862 21.7683 82.9862 21.9627 83.6911 22.4037C84.3961 22.8448 84.9759 23.5136 85.3604 24.3293C85.7449 25.145 85.9176 26.0726 85.8576 26.9999C87.114 27.2636 88.284 27.9227 89.24 28.9053C90.1961 29.888 90.9015 31.1565 91.2795 32.5727C91.9863 35.5913 90.7355 39.0527 88.4384 40.4081C88.2059 40.5431 87.9966 40.6943 88.0013 40.8563C88.0243 40.9684 88.0706 41.0722 88.1361 41.1587L88.178 41.2289C89.0057 42.5897 88.536 44.4959 87.6758 45.5975C86.8249 46.5674 85.7988 47.3053 84.6719 47.7575C84.8754 48.1114 84.9984 48.5194 85.0293 48.9434C85.0602 49.3674 84.998 49.7936 84.8486 50.1821C84.4927 51.0146 83.9308 51.7047 83.235 52.1639C81.5099 53.4599 79.5569 53.6489 77.6085 53.6489ZM74.9348 53.0657C75.3765 53.0657 75.8229 53.0657 76.26 53.0657C78.585 53.1197 80.9798 53.1791 82.9653 51.6887C83.591 51.2839 84.0979 50.6708 84.4208 49.9283C84.565 49.5843 84.6135 49.1967 84.5593 48.8193C84.5051 48.4419 84.3511 48.0934 84.1185 47.8223C84.0881 47.7923 84.0648 47.7537 84.051 47.7102C84.0371 47.6667 84.0332 47.6197 84.0395 47.5739C84.046 47.5274 84.0627 47.4837 84.0879 47.4468C84.1131 47.4099 84.1461 47.3812 84.1836 47.3633C85.2717 46.8557 86.5086 46.2833 87.3317 45.2033C88.071 44.2583 88.4849 42.6383 87.7967 41.5043L87.7548 41.4449C87.6281 41.2752 87.55 41.0638 87.5316 40.8401C87.5316 40.3001 87.9734 40.0409 88.2198 39.8951C90.3309 38.6315 91.4748 35.4671 90.8238 32.6807C90.456 31.3265 89.7671 30.12 88.8362 29.1994C87.9052 28.2787 86.7698 27.6812 85.56 27.4751C85.4999 27.4644 85.4457 27.4268 85.4092 27.3702C85.3727 27.3137 85.3567 27.2428 85.3647 27.1727C85.4561 26.3173 85.3227 25.4497 84.9821 24.6839C84.6414 23.918 84.1095 23.2895 83.4559 22.8808C82.8024 22.4721 82.0577 22.3024 81.3196 22.3937C80.5815 22.4851 79.8844 22.8333 79.3197 23.3927C79.2964 23.4166 79.2691 23.4347 79.2395 23.4458C79.2099 23.457 79.1786 23.4609 79.1477 23.4575C79.117 23.4549 79.0871 23.4449 79.0599 23.4281C79.0327 23.4114 79.0087 23.3883 78.9896 23.3603C77.9433 21.8807 75.9206 21.3407 74.0792 22.0589C72.5958 22.6313 71.2008 23.9057 69.8151 25.9523C69.651 26.2293 69.4445 26.4691 69.206 26.6597C68.9605 26.8115 68.6921 26.9068 68.4155 26.9405L68.2667 26.9729C66.9507 27.2699 65.6952 28.2365 64.4258 29.9321C62.9564 31.9031 62.1566 33.8903 62.045 35.8343C61.9101 38.1671 62.9145 40.3811 64.4955 41.2343C64.5277 41.2517 64.556 41.2772 64.5786 41.309C64.6011 41.3407 64.6172 41.378 64.6257 41.4179C64.6332 41.4586 64.6324 41.5007 64.6235 41.541C64.6147 41.5813 64.5979 41.6186 64.5746 41.6501C64.1911 42.1764 63.9503 42.8225 63.8824 43.5074C63.8145 44.1922 63.9225 44.885 64.193 45.4987C64.4634 46.1124 64.8841 46.6194 65.4021 46.956C65.9201 47.2926 66.5123 47.4437 67.1042 47.3903C67.1571 47.3841 67.2103 47.3995 67.2545 47.4341C67.2987 47.4686 67.331 47.52 67.346 47.5793C67.3618 47.6373 67.3603 47.6997 67.3417 47.7566C67.3231 47.8134 67.2886 47.8613 67.2437 47.8925C67.2149 47.911 67.1906 47.9375 67.1727 47.9695C67.1549 48.0015 67.1441 48.0381 67.1414 48.0761C67.1493 48.4208 67.2728 48.7482 67.4855 48.9887C69.5408 51.5915 72.1355 53.1143 74.4093 53.0603L74.9348 53.0657Z" fill="#231F20"/>
<path d="M100.328 126.754C101.393 126.754 109.331 127.753 113.046 129.897C116.762 132.041 117.566 132.208 116.813 135.103C116.059 137.997 109.517 138.71 104.537 137.619C101.329 136.853 98.2351 135.547 95.3529 133.742L100.328 126.754Z" fill="white"/>
<path d="M109.233 138.391C107.644 138.384 106.059 138.203 104.499 137.851C101.27 137.08 98.1543 135.766 95.2506 133.952C95.2236 133.933 95.2002 133.908 95.1818 133.879C95.1635 133.849 95.1505 133.815 95.1436 133.78C95.1382 133.744 95.1396 133.708 95.1477 133.674C95.1557 133.639 95.1702 133.607 95.1901 133.58L100.166 126.592C100.184 126.564 100.208 126.54 100.235 126.524C100.263 126.508 100.293 126.5 100.324 126.5H100.37C101.668 126.5 109.419 127.526 113.139 129.67L113.976 130.151C116.957 131.846 117.761 132.311 117.017 135.173C116.548 136.987 113.488 138.391 109.233 138.391ZM95.683 133.666C98.4831 135.383 101.478 136.632 104.578 137.376C109.577 138.456 115.92 137.689 116.613 135.032C117.25 132.57 116.789 132.305 113.79 130.599L112.953 130.118C109.405 128.072 101.816 127.03 100.426 126.997L95.683 133.666Z" fill="#231F20"/>
<path d="M101.393 126.727C102.095 126.927 102.706 127.427 103.104 128.129C103.502 128.83 103.656 129.679 103.537 130.507C103.188 133.58 97.5942 133.709 97.2734 133.747C96.9525 133.785 101.393 126.727 101.393 126.727Z" fill="white"/>
<path d="M97.2734 133.92C97.2318 133.918 97.1913 133.905 97.1555 133.88C97.1197 133.856 97.0899 133.821 97.0688 133.78C96.999 133.618 96.8874 133.369 101.221 126.56C101.246 126.52 101.281 126.49 101.321 126.474C101.36 126.457 101.404 126.455 101.444 126.468C101.468 126.468 104.118 127.24 103.769 130.496C103.416 133.623 98.3196 133.898 97.3013 133.92H97.2734ZM101.458 126.992C100.096 129.152 98.0685 132.392 97.5617 133.418C98.8358 133.348 103.025 132.932 103.309 130.432C103.418 129.7 103.292 128.947 102.954 128.317C102.616 127.687 102.09 127.223 101.477 127.013L101.458 126.992Z" fill="#231F20"/>
<path d="M59.9338 133.763C59.7711 133.861 58.2506 136.156 51.6197 137.074C44.9888 137.992 42.5289 139.649 41.0502 135.605C39.5715 131.56 40.5852 128.947 43.8402 127.791C47.0952 126.635 56.1116 125.68 57.8786 127.613C59.6456 129.546 59.9338 133.763 59.9338 133.763Z" fill="white"/>
<path d="M44.3238 138.445C42.6824 138.445 41.6268 137.808 40.8549 135.702C40.083 133.596 39.9668 131.787 40.5294 130.388C41.0502 129.092 42.1476 128.137 43.7844 127.559C46.8441 126.479 56.1395 125.366 58.0274 127.435C59.8362 129.411 60.1245 133.569 60.1385 133.742C60.1406 133.787 60.1323 133.833 60.1143 133.874C60.0963 133.915 60.0694 133.949 60.0362 133.974L59.9711 134.039C58.0599 136.058 54.3911 136.939 51.6383 137.317C50.2107 137.516 48.9831 137.749 47.9183 137.954C46.7322 138.22 45.5308 138.385 44.3238 138.445ZM52.9077 126.749C49.7225 126.749 45.863 127.337 43.9193 128.029C42.3941 128.569 41.3804 129.433 40.9154 130.599C40.4039 131.863 40.5155 133.515 41.2455 135.508C42.3383 138.505 43.9518 138.208 47.8392 137.468C48.9273 137.263 50.1642 137.03 51.5964 136.831C54.2841 136.458 57.8693 135.605 59.6967 133.672C59.6316 132.964 59.2317 129.47 57.7298 127.807C57.0602 127.04 55.149 126.749 52.9077 126.749Z" fill="#231F20"/>
<path d="M62.0496 132.111C62.0496 132.111 59.041 135.027 57.0369 134.681C55.0327 134.336 52.2613 133.061 53.3773 130.55C54.4933 128.039 61.6776 126.527 61.6776 126.527L62.0496 132.111Z" fill="white"/>
<path d="M57.381 134.957C57.2549 134.957 57.129 134.946 57.0044 134.924C55.5024 134.665 53.6889 133.92 53.1077 132.597C52.9642 132.258 52.8962 131.883 52.91 131.505C52.9238 131.128 53.019 130.761 53.1867 130.437C54.3399 127.834 61.3428 126.349 61.6404 126.284C61.6697 126.279 61.6997 126.28 61.7285 126.288C61.7573 126.297 61.7843 126.312 61.8078 126.333C61.8314 126.355 61.8509 126.382 61.8653 126.412C61.8797 126.443 61.8886 126.476 61.8915 126.511L62.2635 132.089C62.2661 132.129 62.2607 132.168 62.2478 132.205C62.2349 132.241 62.2148 132.274 62.1891 132.3C62.0682 132.413 59.4224 134.957 57.381 134.957ZM61.487 126.824C60.2547 127.105 54.512 128.525 53.582 130.664C53.4448 130.918 53.3652 131.208 53.3505 131.507C53.3359 131.806 53.3867 132.105 53.4983 132.376C54.0098 133.526 55.6838 134.195 57.0834 134.438C58.79 134.735 61.3521 132.457 61.845 132.003L61.487 126.824Z" fill="#231F20"/>
<path d="M98.1894 107.617C98.1894 107.617 95.0181 121.981 83.4443 124.724C71.8704 127.467 65.8812 126.743 61.7799 117.671C57.6786 108.599 60.3849 103.048 60.3849 103.048L96.9107 102.206L98.1894 107.617Z" fill="#231F20"/>
<path d="M73.8978 126.403C68.3178 126.403 64.4444 124.146 61.5707 117.796C57.4601 108.697 60.078 103.145 60.1757 102.913C60.196 102.872 60.2251 102.838 60.2602 102.815C60.2952 102.791 60.335 102.778 60.3756 102.778L96.9014 101.936C96.954 101.933 97.006 101.951 97.0484 101.987C97.0908 102.024 97.121 102.076 97.1339 102.136L98.3987 107.536C98.408 107.582 98.408 107.63 98.3987 107.676C98.3661 107.822 95.06 122.256 83.4722 124.983C79.8126 125.863 76.646 126.403 73.8978 126.403ZM60.5384 103.313C60.1757 104.204 58.3436 109.485 61.9845 117.547C66.1463 126.727 72.2145 127.116 83.3745 124.459C94.2695 121.878 97.6686 108.675 97.9244 107.617L96.72 102.481L60.5384 103.313Z" fill="#231F20"/>
<path d="M57.66 107.746C57.66 107.746 51.6755 85.2822 52.4613 71.2044C53.2472 57.1266 57.753 56.6244 63.9003 55.8306C66.6298 55.4742 81.1704 52.974 86.6156 60.4152C92.0607 67.8564 101.644 102.708 101.644 102.708L57.66 107.746Z" fill="#8BCE7E"/>
<path d="M79.2593 55.8684L78.3293 63.3852C78.3293 63.3852 76.2926 67.2678 72.2145 65.3022C68.1365 63.3366 68.0574 59.7132 68.0574 59.7132L69.9918 45.8244C69.9918 45.8244 74.2931 41.3424 76.1019 32.778C76.1019 32.778 79.7057 40.0788 84.9369 41.7204C84.9369 41.7204 84.5882 47.7846 83.6535 51.543C82.7235 55.1772 79.3244 55.8252 79.2593 55.8684Z" fill="white"/>
<path d="M74.4 66.123C73.6091 66.1119 72.8281 65.9173 72.1029 65.5506C67.9179 63.5418 67.8063 59.8752 67.8016 59.7186L69.75 45.7812C69.7594 45.7194 69.7855 45.6627 69.8244 45.6192C69.8662 45.576 74.0931 41.094 75.8694 32.7132C75.8821 32.6617 75.9073 32.6156 75.9419 32.5802C75.9765 32.5448 76.0191 32.5216 76.0647 32.5134C76.1101 32.5059 76.1565 32.5143 76.1978 32.5373C76.2392 32.5604 76.2738 32.5972 76.2972 32.643C76.3344 32.7186 79.9195 39.8682 84.9834 41.4558C85.0357 41.472 85.0816 41.5089 85.113 41.5602C85.1444 41.6114 85.1594 41.6738 85.1554 41.7366C85.1554 41.796 84.7927 47.8764 83.8627 51.6186C83.0955 54.702 80.6077 55.7604 79.4731 56.0844L78.5431 63.423C78.5388 63.4588 78.5294 63.4934 78.5152 63.5256C78.057 64.3078 77.4445 64.9517 76.7287 65.4034C76.0129 65.8552 75.2145 66.1019 74.4 66.123ZM70.215 45.954L68.2899 59.7564C68.2899 59.8428 68.4294 63.18 72.3075 65.0538C75.9298 66.798 77.8875 63.693 78.1107 63.288L79.0407 55.8306C79.045 55.7897 79.0579 55.7506 79.0781 55.7167C79.0984 55.6828 79.1254 55.6552 79.1569 55.6362C79.1998 55.6073 79.2472 55.5889 79.2964 55.5822C80.2962 55.3068 82.7049 54.351 83.421 51.4674C84.2394 48.1788 84.6114 43.038 84.6811 41.9202C80.3101 40.4298 77.1388 35.1972 76.1902 33.4638C74.4232 41.067 70.7172 45.36 70.215 45.954Z" fill="#231F20"/>
<path d="M72.4981 46.035C72.4459 45.3324 72.1978 44.6689 71.7913 44.145C71.3962 43.6743 70.9336 43.2869 70.4242 43.0002C70.1601 42.8105 69.8632 42.6906 69.5547 42.6492C69.3364 42.6517 69.1204 42.7011 68.9177 42.795C68.4225 42.9784 68.0003 43.3615 67.7272 43.875C67.5475 44.3106 67.4629 44.7909 67.4808 45.2736C67.4624 45.7959 67.5031 46.3187 67.6017 46.8288C67.7109 47.338 67.9066 47.8169 68.1773 48.2371C68.4479 48.6574 68.7881 49.0107 69.1779 49.2763C69.5677 49.5419 69.9993 49.7144 70.4473 49.7837C70.8952 49.853 71.3506 49.8177 71.7867 49.68" fill="white"/>
<path d="M70.9032 50.0633C70.094 50.0642 69.3078 49.7512 68.6692 49.174C68.0307 48.5968 67.5764 47.7885 67.3785 46.8773C67.2707 46.347 67.2269 45.8017 67.2483 45.2573C67.2319 44.7314 67.3261 44.2087 67.5227 43.7345C67.8189 43.17 68.279 42.7468 68.82 42.5411C69.0514 42.4367 69.2972 42.3818 69.5454 42.3792C69.8899 42.4213 70.2219 42.5523 70.5173 42.7625C71.0489 43.0639 71.5318 43.4695 71.9448 43.9614C72.3859 44.5303 72.6552 45.2507 72.7121 46.0133C72.716 46.0847 72.6958 46.155 72.6559 46.2094C72.616 46.2638 72.5594 46.2981 72.4982 46.3049C72.437 46.3081 72.3771 46.2843 72.3305 46.2382C72.2839 46.1921 72.2541 46.1272 72.2471 46.0565C72.2014 45.414 71.9779 44.8059 71.61 44.3231C71.232 43.8774 70.7898 43.5119 70.3034 43.2431C70.0714 43.0705 69.8094 42.9598 69.5361 42.9192C69.3477 42.921 69.1614 42.965 68.9874 43.0487C68.5482 43.2062 68.17 43.5366 67.9179 43.9829C67.76 44.3818 67.6866 44.8188 67.704 45.2573C67.6817 45.7562 67.7209 46.2563 67.8203 46.7423C67.9226 47.2151 68.1048 47.6594 68.3563 48.0496C68.6078 48.4398 68.9236 48.7681 69.2853 49.0153C69.647 49.2625 70.0474 49.4238 70.4633 49.4897C70.8791 49.5556 71.3021 49.5248 71.7077 49.3992C71.7668 49.3809 71.8298 49.3906 71.8829 49.4259C71.936 49.4613 71.975 49.5196 71.9913 49.5881C71.999 49.6225 72.0008 49.6584 71.9965 49.6935C71.9922 49.7287 71.982 49.7626 71.9665 49.7932C71.9509 49.8238 71.9303 49.8505 71.9059 49.8719C71.8814 49.8932 71.8536 49.9087 71.8239 49.9176C71.524 50.0138 71.2143 50.0628 70.9032 50.0633Z" fill="#231F20"/>
<path d="M78.3432 43.8912C78.3432 43.8912 80.1706 48.0762 79.5708 48.6756C78.9709 49.275 77.5294 48.6162 77.5294 48.6162" fill="white"/>
<path d="M78.8221 49.1994C78.3444 49.1823 77.8727 49.0709 77.4271 48.87C77.3987 48.8569 77.3728 48.8374 77.3509 48.8127C77.329 48.7879 77.3115 48.7584 77.2994 48.7258C77.2873 48.6932 77.2808 48.6582 77.2804 48.6227C77.28 48.5872 77.2856 48.5519 77.2969 48.519C77.3207 48.4532 77.3654 48.4008 77.4218 48.3726C77.4782 48.3444 77.5418 48.3427 77.5992 48.3678C77.9386 48.519 78.9942 48.87 79.3987 48.4704C79.6452 48.2328 79.0314 46.1052 78.12 44.01C78.1057 43.9785 78.097 43.9441 78.0944 43.9087C78.0919 43.8733 78.0954 43.8376 78.105 43.8038C78.1145 43.7701 78.1298 43.7389 78.15 43.7121C78.1702 43.6854 78.1947 43.6636 78.2223 43.6482C78.2774 43.6176 78.3406 43.6128 78.3986 43.635C78.4566 43.6571 78.5051 43.7044 78.5338 43.767C79.1058 45.0846 80.3706 48.2166 79.7056 48.8808C79.4509 49.1006 79.1393 49.213 78.8221 49.1994Z" fill="#231F20"/>
<path d="M76.0731 42.9452C76.1082 42.4458 75.8876 42.0175 75.5804 41.9884C75.2733 41.9593 74.9959 42.3406 74.9608 42.8399C74.9258 43.3393 75.1463 43.7677 75.4535 43.7968C75.7607 43.8259 76.0381 43.4446 76.0731 42.9452Z" fill="#231F20"/>
<path d="M81.834 43.8697C81.866 43.37 81.6429 42.9434 81.3355 42.9168C81.0282 42.8903 80.7531 43.2738 80.7211 43.7734C80.689 44.2731 80.9122 44.6997 81.2195 44.7262C81.5268 44.7528 81.8019 44.3693 81.834 43.8697Z" fill="#231F20"/>
<path d="M77.8689 52.5474C77.1579 52.5619 76.4544 52.3766 75.8183 52.0074C74.7069 51.3324 73.9955 50.0418 73.7025 48.1734C73.6972 48.1382 73.6979 48.1022 73.7046 48.0674C73.7113 48.0326 73.7239 47.9997 73.7416 47.9706C73.7593 47.9415 73.7819 47.9167 73.8079 47.8978C73.8339 47.8788 73.8629 47.866 73.8932 47.8602C73.9534 47.849 74.0151 47.8651 74.0653 47.9054C74.1155 47.9456 74.1505 48.0068 74.1629 48.0762C74.4233 49.7718 75.0557 50.9328 76.0229 51.5268C77.9759 52.7148 80.724 51.2784 80.7519 51.2622C80.808 51.2329 80.8718 51.2307 80.9294 51.256C80.9869 51.2813 81.0334 51.3321 81.0588 51.3972C81.0719 51.4293 81.0793 51.4642 81.0805 51.4998C81.0817 51.5353 81.0768 51.5708 81.0659 51.6041C81.0551 51.6373 81.0386 51.6677 81.0174 51.6934C80.9962 51.7191 80.9707 51.7395 80.9426 51.7536C79.9714 52.2449 78.9278 52.5144 77.8689 52.5474Z" fill="#231F20"/>
<path d="M79.2593 55.8684C79.2593 55.8684 75.0743 56.268 72.9167 54.2916C72.9167 54.2916 74.7534 61.0416 78.6129 61.02L79.2593 55.8684Z" fill="#231F20"/>
<path d="M78.585 61.29C74.6139 61.29 72.7632 54.6534 72.6842 54.3726C72.6705 54.3173 72.6721 54.2583 72.6888 54.2041C72.7055 54.1498 72.7364 54.103 72.7772 54.0702C72.8164 54.0348 72.8646 54.0155 72.9143 54.0155C72.964 54.0155 73.0123 54.0348 73.0515 54.0702C75.1301 55.9548 79.1895 55.593 79.2314 55.5876C79.266 55.5848 79.3007 55.591 79.333 55.6058C79.3653 55.6206 79.3943 55.6436 79.4179 55.6731C79.4416 55.7026 79.4592 55.7379 79.4696 55.7764C79.4799 55.8149 79.4827 55.8555 79.4778 55.8954L78.8315 61.0524C78.8215 61.1196 78.7912 61.1805 78.746 61.2241C78.7008 61.2676 78.6437 61.291 78.585 61.29ZM73.377 54.972C73.9676 56.6622 75.6416 60.5772 78.4037 60.7446L78.9756 56.16C78.0828 56.2032 75.33 56.2356 73.3863 54.972H73.377Z" fill="#231F20"/>
<path d="M59.2922 57.0834C50.7036 55.8414 42.6405 98.1828 47.3277 102.206C54.6375 108.486 76.9482 99.9108 76.9482 99.9108L74.7162 88.7382C74.7162 88.7382 58.6133 89.6292 58.3203 85.7898C58.0274 81.9504 67.3181 63.9522 66.0161 61.3278C64.7141 58.7034 59.2922 57.0834 59.2922 57.0834Z" fill="#8BCE7E"/>
<path d="M89.28 89.0514C89.2288 89.0532 89.1788 89.0325 89.14 88.9935C89.1013 88.9545 89.0766 88.9 89.0708 88.8408C87.9641 79.812 85.5368 64.692 84.7509 63.8064C84.7127 63.76 84.6914 63.6982 84.6916 63.6339C84.6918 63.5696 84.7134 63.508 84.7519 63.4618C84.7905 63.4157 84.8429 63.3887 84.8982 63.3865C84.9535 63.3843 85.0074 63.4071 85.0485 63.45C86.0576 64.5894 88.6523 81.9342 89.4893 88.7706C89.4972 88.8358 89.4826 88.902 89.4486 88.9546C89.4146 89.0073 89.364 89.0421 89.3079 89.0514H89.28Z" fill="#231F20"/>
<path d="M81.0635 110.414L66.2393 105.592L93.465 99.6462L108.201 106.817L81.0635 110.414Z" fill="white"/>
<path d="M81.0634 110.7C81.0435 110.705 81.0229 110.705 81.003 110.7L66.1788 105.84C66.1171 105.84 66.058 105.812 66.0144 105.761C65.9708 105.71 65.9463 105.642 65.9463 105.57C65.9463 105.498 65.9708 105.43 66.0144 105.379C66.058 105.328 66.1171 105.3 66.1788 105.3L93.4045 99.36C93.4468 99.3439 93.4924 99.3439 93.5347 99.36L108.271 106.531C108.318 106.554 108.357 106.595 108.382 106.647C108.407 106.698 108.417 106.758 108.41 106.817C108.403 106.877 108.379 106.932 108.342 106.974C108.305 107.016 108.257 107.043 108.205 107.05L81.0913 110.7H81.0634ZM67.2622 105.662L81.082 110.16L107.289 106.688L93.4371 99.9486L67.2622 105.662Z" fill="#231F20"/>
<path d="M72.3168 92.5992C75.5718 93.015 78.5897 93.285 81.6168 94.7592C83.3466 95.603 84.9803 96.6912 86.4807 97.9992C87.2453 98.6293 87.9596 99.3377 88.6151 100.116C89.1359 100.775 88.9685 101.417 88.0943 101.099C87.0777 100.729 86.1151 100.183 85.2392 99.4788C87.3337 101.463 89.19 103.764 90.7587 106.321C90.9354 106.612 91.1075 107.028 90.8982 107.287C90.689 107.546 90.224 107.287 89.9682 107.017L85.3694 101.952C86.5868 103.172 87.6222 104.617 88.4337 106.229C88.55 106.461 88.6616 106.769 88.5407 106.979C88.3361 107.374 87.8153 107.077 87.5363 106.747C86.1587 105.132 84.9062 103.379 83.793 101.509L86.2761 105.829C86.2526 105.909 86.2157 105.982 86.1676 106.045C86.1195 106.108 86.0611 106.16 85.9958 106.196C85.9305 106.233 85.8596 106.254 85.7872 106.259C85.7148 106.264 85.6423 106.252 85.574 106.223C85.3005 106.092 85.0638 105.875 84.8904 105.597L81.8819 101.585L83.6582 104.425C83.9372 104.868 84.2162 105.505 83.8953 105.921C83.5745 106.337 82.8491 105.921 82.4399 105.5C80.7939 103.756 78.9864 102.229 77.0505 100.948C76.3484 100.467 75.7485 99.8136 74.972 99.5382C73.856 99.1386 72.461 99.1926 71.2985 99.0414" fill="white"/>
<path d="M90.675 107.654C90.3643 107.614 90.0752 107.45 89.8566 107.19L88.3686 105.57C88.4662 105.748 88.5639 105.932 88.6522 106.11C88.7464 106.251 88.806 106.418 88.8248 106.595C88.8437 106.772 88.821 106.951 88.7592 107.114C88.7175 107.198 88.6596 107.268 88.5902 107.321C88.5207 107.373 88.4417 107.406 88.3593 107.417C88.1834 107.414 88.0099 107.369 87.8498 107.285C87.6897 107.2 87.5465 107.078 87.4293 106.925C87.1224 106.569 86.8248 106.207 86.5318 105.845C86.5339 105.865 86.5339 105.885 86.5318 105.905C86.5142 106.005 86.4786 106.099 86.4273 106.182C86.376 106.265 86.3102 106.334 86.2342 106.385C86.1339 106.455 86.0222 106.5 85.9063 106.518C85.7903 106.536 85.6724 106.525 85.56 106.488C85.2472 106.346 84.9761 106.102 84.7788 105.786L84.2301 105.057C84.2986 105.233 84.3227 105.428 84.2996 105.619C84.2766 105.81 84.2073 105.99 84.0999 106.137C84.0329 106.224 83.9514 106.294 83.8602 106.344C83.7691 106.393 83.6703 106.42 83.5698 106.423C83.0842 106.362 82.6345 106.097 82.305 105.678C80.6752 103.943 78.8813 102.429 76.9575 101.164C76.7203 101.002 76.4925 100.818 76.2693 100.624C75.8631 100.256 75.4096 99.9642 74.9254 99.7597C74.1146 99.5214 73.2832 99.391 72.447 99.3709C72.0471 99.3439 71.6565 99.3168 71.2891 99.2736C71.2331 99.2655 71.1821 99.232 71.1473 99.1805C71.1124 99.1289 71.0966 99.0634 71.1031 98.9983C71.106 98.9663 71.1144 98.9353 71.1276 98.907C71.1409 98.8788 71.1589 98.8539 71.1805 98.8338C71.2022 98.8138 71.227 98.7988 71.2536 98.79C71.2803 98.7811 71.3081 98.7785 71.3356 98.7822C71.6983 98.8254 72.0796 98.8524 72.4702 98.8794C73.341 98.8988 74.207 99.0347 75.051 99.2844C75.5751 99.507 76.0674 99.8201 76.5111 100.213C76.725 100.391 76.9435 100.564 77.1714 100.721C79.1215 102.008 80.9417 103.544 82.5979 105.3C82.8495 105.597 83.1746 105.795 83.5279 105.867C83.5712 105.865 83.6136 105.853 83.6528 105.832C83.6919 105.811 83.727 105.78 83.7558 105.743C84.0069 105.424 83.6628 104.803 83.5047 104.549L81.7284 101.714C81.7118 101.69 81.6996 101.661 81.6924 101.631C81.6853 101.601 81.6834 101.569 81.6869 101.538C81.6903 101.507 81.6991 101.477 81.7126 101.45C81.7261 101.423 81.7441 101.399 81.7656 101.38C81.8047 101.335 81.8573 101.31 81.9121 101.31C81.9668 101.31 82.0194 101.335 82.0585 101.38L85.0717 105.392C85.2187 105.631 85.42 105.818 85.653 105.932C85.708 105.95 85.7656 105.955 85.8223 105.946C85.879 105.938 85.9337 105.917 85.9831 105.883C86.0128 105.865 86.0383 105.839 86.0575 105.808L83.6349 101.579C83.6034 101.526 83.5916 101.46 83.6021 101.396C83.6126 101.332 83.6444 101.276 83.6907 101.239C83.7369 101.203 83.7938 101.189 83.8487 101.201C83.9037 101.213 83.9522 101.25 83.9836 101.304C85.0918 103.161 86.3364 104.903 87.7036 106.51C87.855 106.703 88.0615 106.825 88.2849 106.855C88.3033 106.855 88.3212 106.848 88.3367 106.837C88.3523 106.826 88.3649 106.809 88.3732 106.79C88.4244 106.699 88.3732 106.526 88.2663 106.288C87.7065 105.176 87.0371 104.143 86.2714 103.21L85.2345 102.065C85.2009 102.019 85.1831 101.96 85.1843 101.9C85.1856 101.839 85.2058 101.781 85.2412 101.737C85.2766 101.692 85.3247 101.665 85.3766 101.658C85.4284 101.652 85.4804 101.668 85.5228 101.704C85.8901 102.071 86.2389 102.454 86.5737 102.859L90.1263 106.774C90.2643 106.956 90.4541 107.075 90.661 107.109C90.6799 107.11 90.6986 107.105 90.7156 107.096C90.7326 107.087 90.7474 107.073 90.7587 107.055C90.8656 106.925 90.7587 106.634 90.6052 106.396C89.048 103.859 87.2058 101.574 85.1275 99.603C85.0895 99.561 85.066 99.5042 85.0617 99.4435C85.0574 99.3827 85.0725 99.3222 85.104 99.2735C85.1356 99.2248 85.1816 99.1913 85.2331 99.1794C85.2845 99.1675 85.338 99.1779 85.3833 99.2088C86.2383 99.8999 87.1791 100.435 88.1733 100.796C88.4988 100.915 88.6708 100.867 88.7034 100.796C88.7359 100.726 88.7034 100.489 88.4755 100.208C87.8303 99.439 87.1251 98.7413 86.3691 98.1235C84.8834 96.8291 83.2652 95.7535 81.5517 94.9212C78.8221 93.5982 76.0926 93.258 73.1817 92.8962L72.2749 92.7774C72.2474 92.7741 72.2207 92.7644 72.1964 92.749C72.1721 92.7336 72.1507 92.7127 72.1334 92.6876C72.1161 92.6625 72.1032 92.6336 72.0956 92.6027C72.088 92.5718 72.0857 92.5394 72.0889 92.5074C72.0918 92.4755 72.1002 92.4445 72.1134 92.4162C72.1267 92.388 72.1447 92.3631 72.1663 92.343C72.188 92.3229 72.2128 92.308 72.2394 92.2992C72.2661 92.2903 72.2939 92.2877 72.3214 92.2915L73.2514 92.4048C76.1763 92.772 78.9337 93.1177 81.7191 94.4677C83.465 95.3075 85.1144 96.3959 86.6295 97.7077C87.4068 98.3498 88.1321 99.0727 88.7964 99.8677C89.1312 100.289 89.2335 100.748 89.0661 101.056C88.9684 101.228 88.708 101.488 88.0524 101.25C87.674 101.116 87.3029 100.955 86.941 100.769C88.4278 102.385 89.7721 104.169 90.954 106.094C91.2748 106.634 91.3167 107.071 91.0795 107.374C91.0288 107.439 90.9671 107.491 90.8984 107.527C90.8296 107.563 90.7551 107.583 90.6796 107.584L90.675 107.654Z" fill="#231F20"/>
<path d="M108.201 106.817L114.985 85.7303L87.2758 86.3676L81.0634 110.414L108.201 106.817Z" fill="white"/>
<path d="M81.0634 110.7C81.0296 110.7 80.996 110.692 80.9654 110.675C80.9348 110.658 80.9079 110.634 80.8867 110.603C80.8624 110.569 80.8454 110.528 80.8373 110.485C80.8292 110.442 80.8302 110.397 80.8402 110.354L87.0526 86.3082C87.0677 86.2538 87.0967 86.2061 87.1358 86.1714C87.1748 86.1366 87.222 86.1165 87.2712 86.1138L114.981 85.4766C115.019 85.4759 115.056 85.4859 115.09 85.5056C115.124 85.5254 115.153 85.5543 115.176 85.59C115.196 85.6264 115.209 85.6676 115.214 85.7105C115.219 85.7535 115.215 85.7972 115.204 85.8384L108.419 106.898C108.404 106.946 108.378 106.988 108.343 107.02C108.309 107.051 108.268 107.071 108.224 107.077L81.0913 110.7H81.0634ZM87.4525 86.6484L81.4075 110.117L108.052 106.585L114.664 86.022L87.4525 86.6484Z" fill="#231F20"/>
<path d="M106.722 107.012C106.722 107.012 114.241 114.102 111.6 120.604C108.959 127.105 60.915 134.536 60.915 134.536L58.7527 126.036C58.7527 126.036 96.441 103.68 106.722 107.012Z" fill="#231F20"/>
<path d="M60.915 134.806C60.8649 134.805 60.8163 134.785 60.7762 134.751C60.7361 134.716 60.7065 134.667 60.6918 134.611L58.5295 126.112C58.513 126.052 58.5157 125.987 58.5371 125.93C58.5584 125.872 58.5971 125.825 58.6458 125.798C58.7388 125.739 68.1922 120.15 78.7849 115.031C93.0372 108.146 102.453 105.359 106.769 106.753C106.801 106.763 106.831 106.781 106.857 106.807C108.169 108.101 109.335 109.584 110.326 111.218C112.4 114.685 112.902 117.968 111.777 120.722C109.089 127.278 62.9098 134.498 60.9475 134.8L60.915 134.806ZM59.0271 126.166L61.0824 134.222C64.4397 133.682 108.861 126.565 111.358 120.479C113.813 114.475 107.173 107.795 106.597 107.249C96.8223 104.22 61.845 124.546 59.055 126.176L59.0271 126.166Z" fill="#231F20"/>
<path d="M56.265 103.756C56.265 103.756 93.572 121.273 102.821 125.896L97.4454 135.54C97.4454 135.54 62.9982 134.757 53.1216 124.708C43.245 114.658 43.9007 97.929 56.265 103.756Z" fill="#231F20"/>
<path d="M97.4454 135.821C97.3617 135.821 88.708 135.61 78.9616 134.174C65.8486 132.235 57.1066 129.125 52.9728 124.918C47.802 119.659 44.1796 110.425 47.0254 105.062C47.9554 103.28 50.4385 100.715 56.3626 103.502C56.7346 103.68 93.7765 121.079 102.923 125.642C102.954 125.657 102.982 125.679 103.005 125.708C103.027 125.737 103.044 125.772 103.053 125.809C103.063 125.847 103.065 125.887 103.06 125.926C103.055 125.965 103.044 126.003 103.025 126.036L97.65 135.697C97.6282 135.736 97.5978 135.768 97.5619 135.79C97.526 135.812 97.4859 135.823 97.4454 135.821ZM51.6847 102.816C49.7736 102.816 48.3088 103.669 47.416 105.343C45.2212 109.485 47.0487 118.179 53.275 124.513C62.6727 134.077 94.9995 135.211 97.3198 135.275L102.481 126.014C92.9302 121.262 56.5533 104.177 56.1813 104.004C54.7611 103.28 53.235 102.876 51.6847 102.816Z" fill="#231F20"/>
<path d="M108.345 98.3988C108.385 98.648 108.478 98.8818 108.615 99.0792L109.34 100.337C109.314 100.207 109.263 100.086 109.191 99.9811C109.12 99.8763 109.03 99.7911 108.927 99.7313C108.824 99.6716 108.711 99.6388 108.596 99.6353C108.481 99.6318 108.367 99.6576 108.261 99.711C108.055 99.8405 107.884 100.034 107.767 100.269C107.649 100.504 107.59 100.773 107.596 101.045C107.617 101.588 107.728 102.121 107.922 102.616C108.438 104.171 109.605 106.445 111.293 105.268C112.437 104.468 112.753 101.65 112.916 100.246C113.237 97.4808 112.507 93.9276 109.447 94.4676C109.535 95.8291 109.973 97.1287 110.703 98.199C110.205 97.6374 108.192 96.768 108.345 98.3988Z" fill="white"/>
<path d="M110.358 105.84C110.172 105.841 109.986 105.805 109.81 105.732C108.708 105.295 108.02 103.648 107.708 102.703C107.505 102.178 107.39 101.614 107.369 101.039C107.361 100.72 107.432 100.405 107.572 100.13C107.713 99.856 107.918 99.6338 108.164 99.4895C108.278 99.4293 108.401 99.398 108.526 99.3977L108.424 99.2195C108.265 98.9875 108.16 98.7126 108.117 98.4203C108.08 98.2059 108.106 97.9833 108.19 97.7876C108.274 97.592 108.412 97.4346 108.582 97.3403C109.059 97.1694 109.574 97.2138 110.024 97.4645C109.577 96.5579 109.31 95.547 109.242 94.5053C109.239 94.4431 109.256 94.3817 109.29 94.3329C109.323 94.2841 109.371 94.2513 109.424 94.2407C109.889 94.1225 110.372 94.1374 110.832 94.2841C111.291 94.4309 111.713 94.7051 112.06 95.0831C113.153 96.3359 113.334 98.5931 113.135 100.294C112.953 101.849 112.628 104.641 111.409 105.494C111.094 105.722 110.73 105.842 110.358 105.84ZM108.554 99.8999C108.479 99.8988 108.405 99.9153 108.336 99.9485C108.166 100.059 108.027 100.221 107.931 100.417C107.836 100.613 107.79 100.836 107.796 101.061C107.815 101.573 107.919 102.075 108.103 102.541C108.336 103.232 108.977 104.89 109.963 105.278C110.167 105.354 110.382 105.374 110.593 105.338C110.805 105.301 111.006 105.209 111.182 105.068C112.228 104.339 112.544 101.596 112.697 100.278C112.888 98.6579 112.735 96.5519 111.767 95.4179C111.493 95.1179 111.163 94.8952 110.802 94.7669C110.442 94.6386 110.061 94.6083 109.689 94.6781C109.809 95.9072 110.223 97.0727 110.884 98.0423C110.918 98.0909 110.934 98.1528 110.93 98.2152C110.926 98.2775 110.901 98.3355 110.861 98.3771C110.821 98.4204 110.769 98.4445 110.714 98.4445C110.66 98.4445 110.607 98.4204 110.568 98.3771C110.256 98.0207 109.229 97.5131 108.768 97.7723C108.666 97.8263 108.536 97.9505 108.568 98.3717C108.609 98.58 108.688 98.7753 108.801 98.9441L109.191 99.6137C109.294 99.6908 109.38 99.7933 109.444 99.9137C109.509 100.034 109.549 100.17 109.563 100.31C109.568 100.365 109.557 100.421 109.532 100.468C109.507 100.515 109.469 100.551 109.424 100.57C109.379 100.588 109.331 100.589 109.286 100.571C109.241 100.553 109.203 100.518 109.177 100.472L108.889 99.9755C108.785 99.917 108.67 99.8909 108.554 99.8999Z" fill="#231F20"/>
<path d="M97.8686 123.898C97.8393 123.903 97.8095 123.903 97.7802 123.898C96.9665 123.53 77.7341 114.885 73.4003 111.802C73.3464 111.763 73.3078 111.7 73.2931 111.629C73.2783 111.557 73.2884 111.481 73.3212 111.418C73.3374 111.387 73.3589 111.359 73.3844 111.337C73.4099 111.316 73.4389 111.3 73.4696 111.292C73.5004 111.283 73.5323 111.282 73.5635 111.288C73.5947 111.294 73.6246 111.307 73.6514 111.326C77.948 114.383 97.7523 123.287 97.9523 123.374C98.012 123.4 98.0602 123.453 98.0864 123.521C98.1125 123.589 98.1145 123.666 98.0918 123.736C98.0725 123.785 98.041 123.827 98.0013 123.856C97.9616 123.885 97.9154 123.899 97.8686 123.898Z" fill="white"/>
<path d="M75.4369 88.6356C79.6769 88.6356 83.1141 84.8568 83.1141 80.1954C83.1141 75.534 79.6769 71.7552 75.4369 71.7552C71.197 71.7552 67.7598 75.534 67.7598 80.1954C67.7598 84.8568 71.197 88.6356 75.4369 88.6356Z" fill="#231F20"/>
<path d="M75.437 88.9002C71.0753 88.9002 67.532 84.996 67.532 80.1954C67.532 75.3948 71.0799 71.4852 75.437 71.4852C79.794 71.4852 83.342 75.3948 83.342 80.1954C83.342 84.996 79.7987 88.9002 75.437 88.9002ZM75.437 72.0252C71.331 72.0252 67.997 75.6918 67.997 80.1954C67.997 84.699 71.3357 88.3602 75.437 88.3602C79.5383 88.3602 82.877 84.699 82.877 80.1954C82.877 75.6918 79.5429 72.0252 75.437 72.0252Z" fill="#231F20"/>
<path d="M71.3868 82.9386L69.5268 81.6751V80.0065L71.3868 78.7429C72.0068 78.3289 72.6268 77.9076 73.2468 77.4792V79.4989C72.9166 79.7365 72.5865 79.9687 72.2563 80.1901C71.9262 80.4115 71.6007 80.6382 71.2659 80.8812L72.2563 81.5185L73.2468 82.161V84.2022L71.3868 82.9386Z" fill="white"/>
<path d="M73.7722 84.7369L75.9624 75.0601L77.1063 75.6595L74.9068 85.3201L73.7722 84.7369Z" fill="white"/>
<path d="M79.515 78.7429L81.375 80.0065V81.6751L79.515 82.9386L77.655 84.2022V82.161L78.6455 81.5185L79.6359 80.8812C79.3057 80.6382 78.9756 80.4061 78.6455 80.1901C78.3153 79.9741 77.9898 79.7365 77.655 79.4989V77.4792L79.515 78.7429Z" fill="white"/>
<path d="M59.52 103.68C59.4583 103.684 59.3977 103.66 59.3515 103.612C59.3053 103.565 59.2773 103.498 59.2736 103.426C59.2699 103.355 59.2908 103.284 59.3318 103.231C59.3728 103.177 59.4304 103.144 59.4921 103.14L70.6521 101.569L72.4238 91.1952L58.125 89.7912C58.0908 89.7885 58.0576 89.777 58.0278 89.7573C57.998 89.7377 57.9725 89.7105 57.953 89.6778C57.9321 89.6459 57.9179 89.6088 57.9114 89.5695C57.905 89.5301 57.9064 89.4896 57.9158 89.451L63.7934 64.0386C63.8094 63.967 63.8493 63.9057 63.9042 63.8683C63.9591 63.8308 64.0246 63.8202 64.0863 63.8388C64.148 63.8574 64.2007 63.9037 64.233 63.9675C64.2653 64.0313 64.2744 64.1074 64.2584 64.179L58.4505 89.2836L72.7121 90.6552C72.7448 90.6593 72.7764 90.671 72.8052 90.6896C72.8339 90.7081 72.8592 90.7332 72.8795 90.7632C72.8989 90.7939 72.9127 90.8289 72.9199 90.8661C72.9271 90.9033 72.9276 90.9418 72.9213 90.9792L71.0613 101.839C71.0512 101.894 71.0266 101.945 70.9908 101.983C70.955 102.022 70.9098 102.047 70.8614 102.055L59.52 103.648V103.68Z" fill="#231F20"/>
<path d="M120.974 30.348H97.7895V33.1344H120.974V30.348Z" fill="#E6E7E8"/>
<path d="M146.856 30.348H123.671V33.1344H146.856V30.348Z" fill="#E6E7E8"/>
<path d="M120.974 35.1216H107.364V37.908H120.974V35.1216Z" fill="#8BCE7E"/>
<path d="M144.266 35.1216H123.671V37.908H144.266V35.1216Z" fill="#E6E7E8"/>
<path d="M120.974 39.9006H103.821V42.687H120.974V39.9006Z" fill="#E6E7E8"/>
<path d="M133.343 39.9006H123.671V42.687H133.343V39.9006Z" fill="#E6E7E8"/>
<path d="M120.979 44.6742H110.972V47.4606H120.979V44.6742Z" fill="#E6E7E8"/>
<path d="M142.615 44.6742H123.671V47.4606H142.615V44.6742Z" fill="#8BCE7E"/>
<path d="M120.974 49.4532H117.789V52.2396H120.974V49.4532Z" fill="#8BCE7E"/>
<path d="M136.398 49.4532H123.671V52.2396H136.398V49.4532Z" fill="#E6E7E8"/>
<path d="M120.574 69.0876H99.2682V72.279H120.574V69.0876Z" fill="#8BCE7E"/>
<path d="M137.082 69.0876H123.997V72.279H137.082V69.0876Z" fill="#E6E7E8"/>
<path d="M120.57 74.5524H103.272V77.7438H120.57V74.5524Z" fill="#E6E7E8"/>
<path d="M143.048 74.5524H123.997V77.7438H143.048V74.5524Z" fill="#E6E7E8"/>
<path d="M120.57 80.0226H111.921V83.214H120.57V80.0226Z" fill="#E6E7E8"/>
<path d="M146.652 80.0226H123.997V83.214H146.652V80.0226Z" fill="#E6E7E8"/>
<path d="M120.57 85.4928H117.329V88.6842H120.57V85.4928Z" fill="#E6E7E8"/>
<path d="M148.075 85.4928H123.997V88.6842H148.075V85.4928Z" fill="#8BCE7E"/>
<path d="M140.17 90.9576H123.997V94.149H140.17V90.9576Z" fill="#E6E7E8"/>
<path d="M132.195 62.1648L130.446 61.3548V60.2748L132.195 59.4648L133.943 58.6548V59.94C133.627 60.0966 133.315 60.2424 133.013 60.3828C132.711 60.5232 132.39 60.669 132.083 60.8256L133.013 61.236L133.943 61.6464V62.9532L132.195 62.1648Z" fill="#E6E7E8"/>
<path d="M134.459 63.315L136.533 57.1212L137.621 57.4992L135.534 63.72L134.459 63.315Z" fill="#E6E7E8"/>
<path d="M139.881 59.481C140.463 59.751 141.048 60.021 141.63 60.291V61.371L139.881 62.181L138.133 62.991V61.668L139.063 61.2576L139.993 60.8472C139.677 60.6906 139.365 60.5448 139.063 60.4044C138.761 60.264 138.44 60.1182 138.133 59.9616V58.671L139.881 59.481Z" fill="#E6E7E8"/>
<path d="M98.3987 23.7061C98.398 23.5809 98.4219 23.4572 98.4684 23.3443C98.509 23.2292 98.5709 23.126 98.6498 23.0419C98.7271 22.9587 98.817 22.8929 98.9148 22.8475C99.0196 22.7975 99.1317 22.7718 99.245 22.7719C99.3521 22.773 99.458 22.7987 99.5565 22.8475C99.6524 22.8941 99.7405 22.9599 99.8169 23.0419C99.8913 23.1292 99.9512 23.2317 99.9936 23.3443C100.037 23.4583 100.059 23.5815 100.059 23.7061C100.059 23.8323 100.037 23.9573 99.9936 24.0733C99.9499 24.1802 99.8901 24.2771 99.8169 24.3595C99.6614 24.5281 99.4577 24.6242 99.245 24.6295C99.1317 24.6295 99.0196 24.6038 98.9148 24.5539C98.8161 24.5105 98.7259 24.4444 98.6498 24.3595C98.5724 24.2802 98.5105 24.1826 98.4684 24.0733C98.4218 23.9585 98.398 23.833 98.3987 23.7061ZM98.3987 26.8705C98.4009 26.7468 98.4242 26.6249 98.4673 26.5118C98.5104 26.3987 98.5724 26.2967 98.6498 26.2117C98.7256 26.125 98.8158 26.0571 98.9148 26.0119C99.0199 25.9638 99.132 25.9399 99.245 25.9417C99.3518 25.9409 99.4577 25.9648 99.5565 26.0119C99.6535 26.0584 99.742 26.1263 99.8169 26.2117C99.8913 26.297 99.9512 26.3977 99.9936 26.5087C100.036 26.6237 100.059 26.7478 100.059 26.8732C100.059 26.9985 100.036 27.1226 99.9936 27.2377C99.9512 27.347 99.8912 27.446 99.8169 27.5293C99.7405 27.6112 99.6524 27.677 99.5565 27.7237C99.4577 27.7707 99.3518 27.7946 99.245 27.7939C99.132 27.7956 99.0199 27.7717 98.9148 27.7237C98.817 27.6783 98.7271 27.6124 98.6498 27.5293C98.5713 27.4491 98.5093 27.3494 98.4684 27.2377C98.4213 27.123 98.3975 26.9974 98.3987 26.8705Z" fill="#E6E7E8"/>
<path d="M125.55 114.566C125.734 114.577 125.916 114.517 126.066 114.394C126.196 114.28 126.257 114.043 126.257 113.675V112.001C126.256 111.724 126.288 111.448 126.35 111.181C126.408 110.931 126.505 110.697 126.638 110.489C126.773 110.29 126.945 110.128 127.14 110.014C127.373 109.888 127.628 109.827 127.884 109.836H128.931V111.575H128.563C128.479 111.565 128.395 111.582 128.319 111.624C128.242 111.666 128.178 111.731 128.131 111.812C128.05 111.977 128.01 112.163 128.014 112.352V114.059C128.02 114.275 127.986 114.49 127.917 114.691C127.861 114.846 127.782 114.988 127.684 115.112C127.599 115.219 127.496 115.305 127.382 115.366C127.291 115.421 127.192 115.456 127.089 115.468C127.19 115.49 127.289 115.526 127.382 115.576C127.496 115.633 127.599 115.716 127.684 115.819C127.908 116.107 128.027 116.485 128.014 116.872V118.584C128.009 118.773 128.049 118.96 128.131 119.124C128.177 119.206 128.242 119.273 128.318 119.315C128.394 119.358 128.479 119.376 128.563 119.367H128.931V121.106H127.884C127.628 121.115 127.373 121.054 127.14 120.928C126.945 120.814 126.773 120.652 126.638 120.452C126.506 120.244 126.409 120.01 126.35 119.761C126.288 119.492 126.257 119.214 126.257 118.935V117.261C126.273 117.133 126.264 117.003 126.231 116.879C126.198 116.756 126.142 116.643 126.066 116.548C125.916 116.425 125.734 116.364 125.55 116.375V114.566Z" fill="#E6E7E8"/>
<path d="M141.611 116.365C141.426 116.354 141.243 116.414 141.09 116.537C141.015 116.633 140.96 116.746 140.927 116.869C140.894 116.992 140.885 117.122 140.9 117.25V118.924C140.9 119.203 140.868 119.481 140.807 119.75C140.75 120 140.652 120.235 140.518 120.442C140.385 120.644 140.213 120.806 140.016 120.917C139.783 121.043 139.529 121.104 139.272 121.095H138.226V119.34H138.598C138.681 119.348 138.765 119.33 138.841 119.287C138.916 119.244 138.98 119.179 139.026 119.097C139.107 118.933 139.148 118.746 139.142 118.557V116.845C139.137 116.631 139.17 116.418 139.24 116.219C139.296 116.062 139.377 115.917 139.477 115.792C139.561 115.689 139.662 115.607 139.774 115.549C139.87 115.5 139.969 115.464 140.072 115.441C139.968 115.429 139.867 115.394 139.774 115.339C139.662 115.278 139.56 115.192 139.477 115.085C139.376 114.963 139.295 114.82 139.24 114.664C139.17 114.463 139.137 114.248 139.142 114.032V112.32C139.146 112.131 139.106 111.944 139.026 111.78C138.979 111.7 138.915 111.635 138.84 111.593C138.765 111.551 138.681 111.534 138.598 111.542H138.226V109.836H139.272C139.529 109.827 139.783 109.888 140.016 110.014C140.213 110.125 140.385 110.287 140.518 110.489C140.653 110.696 140.751 110.93 140.807 111.181C140.869 111.448 140.9 111.724 140.9 112.001V113.675C140.884 113.804 140.893 113.935 140.926 114.059C140.959 114.183 141.015 114.297 141.09 114.394C141.243 114.517 141.426 114.577 141.611 114.566V116.365Z" fill="#E6E7E8"/>
</svg>
