<svg width="591" height="223" viewBox="0 0 591 223" fill="none" xmlns="http://www.w3.org/2000/svg">
<g clip-path="url(#clip0_14_314)">
<path fill-rule="evenodd" clip-rule="evenodd" d="M351.733 27.91H121.226C119.395 27.91 117.739 28.601 116.539 29.7181C115.34 30.8356 114.598 32.3794 114.598 34.0847V181.21C114.598 182.914 115.34 184.458 116.54 185.576C117.739 186.693 119.396 187.385 121.226 187.385H351.733C353.563 187.385 355.22 186.694 356.419 185.577C357.619 184.459 358.361 182.915 358.361 181.21V34.0847C358.361 32.3803 357.619 30.8363 356.419 29.7186C355.219 28.6013 353.563 27.91 351.733 27.91Z" fill="white" stroke="#141C3A" stroke-width="8"/>
<path fill-rule="evenodd" clip-rule="evenodd" d="M340.376 41.5856H132.346C131.563 41.5856 130.853 41.8821 130.339 42.362C129.826 42.8411 129.508 43.5029 129.508 44.2339V153.856C129.508 154.587 129.825 155.249 130.339 155.728C130.852 156.208 131.562 156.504 132.346 156.504H340.376C341.159 156.504 341.869 156.208 342.383 155.728C342.897 155.249 343.214 154.587 343.214 153.856V44.2339C343.214 43.5028 342.897 42.8409 342.383 42.3618C341.87 41.8821 341.16 41.5856 340.376 41.5856Z" fill="#8BCE7E" stroke="#8BCE7E" stroke-width="8"/>
<path fill-rule="evenodd" clip-rule="evenodd" d="M254.075 187.385H219.12L216.76 215.839H256.435L254.075 187.385Z" fill="white" stroke="#141C3A" stroke-width="8"/>
<path fill-rule="evenodd" clip-rule="evenodd" d="M270.795 222.235H202.4C202.335 222.235 202.276 222.211 202.233 222.171C202.19 222.13 202.163 222.074 202.163 222.013V219.037C202.163 218.154 202.547 217.354 203.169 216.776C203.79 216.197 204.648 215.839 205.596 215.839H267.599C268.547 215.839 269.405 216.197 270.027 216.776C270.648 217.355 271.032 218.154 271.032 219.037V222.013C271.032 222.075 271.006 222.131 270.963 222.171C270.92 222.211 270.86 222.235 270.795 222.235Z" fill="white" stroke="#141C3A" stroke-width="8"/>
<path d="M236.598 177.238C239.016 177.238 240.976 175.411 240.976 173.158C240.976 170.904 239.016 169.077 236.598 169.077C234.18 169.077 232.219 170.904 232.219 173.158C232.219 175.411 234.18 177.238 236.598 177.238Z" stroke="#141C3A" stroke-width="8"/>
<path d="M133.294 136.432H97.795C94.6581 136.432 92.1151 138.802 92.1151 141.726V216.942C92.1151 219.865 94.6581 222.235 97.795 222.235H133.294C136.431 222.235 138.974 219.865 138.974 216.942V141.726C138.974 138.802 136.431 136.432 133.294 136.432Z" fill="white" stroke="#141C3A" stroke-width="8"/>
<path fill-rule="evenodd" clip-rule="evenodd" d="M138.974 146.137H92.1151V209.508H138.974V146.137Z" fill="#141C3A" stroke="#141C3A" stroke-width="8"/>
<path d="M125.958 140.403H105.368C104.845 140.403 104.422 140.798 104.422 141.285C104.422 141.772 104.845 142.167 105.368 142.167H125.958C126.481 142.167 126.905 141.772 126.905 141.285C126.905 140.798 126.481 140.403 125.958 140.403Z" fill="#141C3A"/>
<path d="M118.337 215.706C118.337 214.318 117.129 213.192 115.639 213.192C114.149 213.192 112.941 214.318 112.941 215.706C112.941 217.095 114.149 218.221 115.639 218.221C117.129 218.221 118.337 217.095 118.337 215.706Z" fill="#141C3A"/>
<path d="M105.368 180.988C107.329 180.988 108.918 179.507 108.918 177.68C108.918 175.852 107.329 174.371 105.368 174.371C103.408 174.371 101.818 175.852 101.818 177.68C101.818 179.507 103.408 180.988 105.368 180.988Z" fill="#8BCE7E" stroke="#8BCE7E" stroke-width="8"/>
<path d="M129.271 171.945H114.598C114.075 171.945 113.651 172.34 113.651 172.827C113.651 173.314 114.075 173.709 114.598 173.709H129.271C129.794 173.709 130.218 173.314 130.218 172.827C130.218 172.34 129.794 171.945 129.271 171.945Z" fill="white"/>
<path d="M124.538 176.797H114.598C114.075 176.797 113.651 177.192 113.651 177.68C113.651 178.167 114.075 178.562 114.598 178.562H124.538C125.061 178.562 125.485 178.167 125.485 177.68C125.485 177.192 125.061 176.797 124.538 176.797Z" fill="white"/>
<path d="M119.805 181.65H114.598C114.075 181.65 113.651 182.045 113.651 182.532C113.651 183.019 114.075 183.414 114.598 183.414H119.805C120.327 183.414 120.751 183.019 120.751 182.532C120.751 182.045 120.327 181.65 119.805 181.65Z" fill="white"/>
<path d="M68.0939 178.121C88.1571 178.121 104.422 162.962 104.422 144.263C104.422 125.563 88.1571 110.405 68.0939 110.405C48.0306 110.405 31.7661 125.563 31.7661 144.263C31.7661 162.962 48.0306 178.121 68.0939 178.121Z" fill="#F1F1F1" stroke="#141C3A" stroke-width="8"/>
<path fill-rule="evenodd" clip-rule="evenodd" d="M459.181 103.346H297.299C295.47 103.346 293.814 104.037 292.615 105.155C291.416 106.273 290.675 107.817 290.675 109.522V206.795C290.675 208.5 291.417 210.044 292.616 211.162C293.815 212.28 295.47 212.971 297.299 212.971H459.181C461.011 212.971 462.667 212.28 463.865 211.163C465.064 210.045 465.805 208.501 465.805 206.795V109.522C465.805 107.818 465.064 106.273 463.865 105.155C462.666 104.038 461.01 103.346 459.181 103.346Z" fill="white" stroke="#141C3A" stroke-width="8"/>
<path fill-rule="evenodd" clip-rule="evenodd" d="M477.641 212.971H278.84C278.775 212.971 278.717 212.996 278.675 213.035C278.632 213.075 278.605 213.131 278.605 213.192V217.603C278.605 218.883 279.162 220.041 280.061 220.879C280.961 221.717 282.204 222.235 283.577 222.235H472.904C474.277 222.235 475.52 221.717 476.419 220.879C477.319 220.04 477.875 218.882 477.875 217.603V213.192C477.875 213.131 477.848 213.076 477.806 213.036C477.763 212.996 477.705 212.971 477.641 212.971Z" fill="white" stroke="#141C3A" stroke-width="8"/>
<path fill-rule="evenodd" clip-rule="evenodd" d="M391.325 213.07L364.823 213.07C365.284 214.203 366.059 215.191 367.048 215.944C368.312 216.905 369.925 217.482 371.683 217.482H384.466C386.223 217.482 387.836 216.905 389.1 215.944C390.089 215.191 390.864 214.203 391.325 213.07Z" fill="white" stroke="#141C3A" stroke-width="8"/>
<path d="M456.908 112.831H299.432C298.386 112.831 297.538 113.621 297.538 114.595V201.909C297.538 202.884 298.386 203.674 299.432 203.674H456.908C457.954 203.674 458.802 202.884 458.802 201.909V114.595C458.802 113.621 457.954 112.831 456.908 112.831Z" fill="#F1F1F1"/>
<path d="M231.273 44.6736C231.926 44.6736 232.456 44.1798 232.456 43.5707C232.456 42.9616 231.926 42.4679 231.273 42.4679C230.619 42.4679 230.089 42.9616 230.089 43.5707C230.089 44.1798 230.619 44.6736 231.273 44.6736Z" fill="#293347"/>
<path fill-rule="evenodd" clip-rule="evenodd" d="M271.032 13.1316H165.481V109.081C165.481 110.3 166.01 111.403 166.867 112.201C167.724 112.999 168.908 113.493 170.216 113.493H266.297C267.605 113.493 268.788 112.999 269.645 112.201C270.502 111.402 271.032 110.3 271.032 109.081V13.1316Z" fill="#141C3A" stroke="#141C3A" stroke-width="8"/>
<path fill-rule="evenodd" clip-rule="evenodd" d="M266.297 1H170.216C168.908 1 167.724 1.49382 166.867 2.29229C166.01 3.09076 165.481 4.19386 165.481 5.41231V11.367H271.032V5.41231C271.032 4.19422 270.502 3.0911 269.645 2.29253C268.788 1.49404 267.604 1 266.297 1Z" fill="white" stroke="#141C3A" stroke-width="8"/>
<path d="M173.764 8.27892C174.94 8.27892 175.894 7.39013 175.894 6.29376C175.894 5.19738 174.94 4.30859 173.764 4.30859C172.587 4.30859 171.634 5.19738 171.634 6.29376C171.634 7.39013 172.587 8.27892 173.764 8.27892Z" fill="#141C3A"/>
<path d="M180.864 8.27892C182.04 8.27892 182.994 7.39013 182.994 6.29376C182.994 5.19738 182.04 4.30859 180.864 4.30859C179.687 4.30859 178.734 5.19738 178.734 6.29376C178.734 7.39013 179.687 8.27892 180.864 8.27892Z" fill="#8BCE7E"/>
<path d="M187.963 8.27892C189.14 8.27892 190.093 7.39013 190.093 6.29376C190.093 5.19738 189.14 4.30859 187.963 4.30859C186.787 4.30859 185.834 5.19738 185.834 6.29376C185.834 7.39013 186.787 8.27892 187.963 8.27892Z" fill="#F1F1F1"/>
<path opacity="0.54" d="M180.154 75.7745H177.787C177.264 75.7745 176.84 76.1695 176.84 76.6568C176.84 77.144 177.264 77.5391 177.787 77.5391H180.154C180.676 77.5391 181.1 77.144 181.1 76.6568C181.1 76.1695 180.676 75.7745 180.154 75.7745Z" fill="#535B6B"/>
<path opacity="0.54" d="M180.154 31.6597H177.787C177.264 31.6597 176.84 32.0547 176.84 32.542C176.84 33.0293 177.264 33.4243 177.787 33.4243H180.154C180.676 33.4243 181.1 33.0293 181.1 32.542C181.1 32.0547 180.676 31.6597 180.154 31.6597Z" fill="#535B6B"/>
<path fill-rule="evenodd" clip-rule="evenodd" d="M184.887 31.6597H191.277C191.8 31.6597 192.223 32.0547 192.223 32.542C192.223 33.0293 191.8 33.4243 191.277 33.4243H184.887C184.364 33.4243 183.94 33.0293 183.94 32.542C183.94 32.0547 184.364 31.6597 184.887 31.6597Z" fill="#8BCE7E"/>
<path fill-rule="evenodd" clip-rule="evenodd" d="M195.537 31.6597H201.927C202.449 31.6597 202.873 32.0547 202.873 32.542C202.873 33.0293 202.449 33.4243 201.927 33.4243H195.537C195.014 33.4243 194.59 33.0293 194.59 32.542C194.59 32.0547 195.014 31.6597 195.537 31.6597Z" fill="#F1F1F1"/>
<path fill-rule="evenodd" clip-rule="evenodd" d="M206.187 31.6597H218.02C218.542 31.6597 218.966 32.0547 218.966 32.542C218.966 33.0293 218.542 33.4243 218.02 33.4243H206.187C205.664 33.4243 205.24 33.0293 205.24 32.542C205.24 32.0547 205.664 31.6597 206.187 31.6597Z" fill="#8BCE7E"/>
<path fill-rule="evenodd" clip-rule="evenodd" d="M222.28 31.6597H239.793C240.315 31.6597 240.739 32.0547 240.739 32.542C240.739 33.0293 240.315 33.4243 239.793 33.4243H222.28C221.757 33.4243 221.333 33.0293 221.333 32.542C221.333 32.0547 221.757 31.6597 222.28 31.6597Z" fill="#8BCE7E"/>
<path opacity="0.54" d="M180.154 40.4827H177.787C177.264 40.4827 176.84 40.8777 176.84 41.365C176.84 41.8522 177.264 42.2473 177.787 42.2473H180.154C180.676 42.2473 181.1 41.8522 181.1 41.365C181.1 40.8777 180.676 40.4827 180.154 40.4827Z" fill="#535B6B"/>
<path opacity="0.54" d="M180.154 49.3056H177.787C177.264 49.3056 176.84 49.7007 176.84 50.1879C176.84 50.6752 177.264 51.0702 177.787 51.0702H180.154C180.676 51.0702 181.1 50.6752 181.1 50.1879C181.1 49.7007 180.676 49.3056 180.154 49.3056Z" fill="#535B6B"/>
<path opacity="0.54" d="M180.154 58.1286H177.787C177.264 58.1286 176.84 58.5236 176.84 59.0109C176.84 59.4981 177.264 59.8932 177.787 59.8932H180.154C180.676 59.8932 181.1 59.4981 181.1 59.0109C181.1 58.5236 180.676 58.1286 180.154 58.1286Z" fill="#535B6B"/>
<path opacity="0.54" d="M180.154 66.9515H177.787C177.264 66.9515 176.84 67.3465 176.84 67.8338C176.84 68.3211 177.264 68.7161 177.787 68.7161H180.154C180.676 68.7161 181.1 68.3211 181.1 67.8338C181.1 67.3465 180.676 66.9515 180.154 66.9515Z" fill="#535B6B"/>
<path opacity="0.54" d="M180.154 84.5974H177.787C177.264 84.5974 176.84 84.9924 176.84 85.4797C176.84 85.967 177.264 86.362 177.787 86.362H180.154C180.676 86.362 181.1 85.967 181.1 85.4797C181.1 84.9924 180.676 84.5974 180.154 84.5974Z" fill="#535B6B"/>
<path opacity="0.54" d="M180.154 93.4203H177.787C177.264 93.4203 176.84 93.8154 176.84 94.3026C176.84 94.7899 177.264 95.1849 177.787 95.1849H180.154C180.676 95.1849 181.1 94.7899 181.1 94.3026C181.1 93.8154 180.676 93.4203 180.154 93.4203Z" fill="#535B6B"/>
<path d="M199.56 40.4827H184.887C184.364 40.4827 183.94 40.8777 183.94 41.365C183.94 41.8522 184.364 42.2473 184.887 42.2473H199.56C200.083 42.2473 200.507 41.8522 200.507 41.365C200.507 40.8777 200.083 40.4827 199.56 40.4827Z" fill="#8BCE7E"/>
<path d="M230.326 40.4827H203.82C203.297 40.4827 202.873 40.8777 202.873 41.365C202.873 41.8522 203.297 42.2473 203.82 42.2473H230.326C230.849 42.2473 231.273 41.8522 231.273 41.365C231.273 40.8777 230.849 40.4827 230.326 40.4827Z" fill="#F1F1F1"/>
<path d="M244.526 40.4827H234.586C234.063 40.4827 233.639 40.8777 233.639 41.365C233.639 41.8522 234.063 42.2473 234.586 42.2473H244.526C245.049 42.2473 245.473 41.8522 245.473 41.365C245.473 40.8777 245.049 40.4827 244.526 40.4827Z" fill="#8BCE7E"/>
<path d="M194.827 49.3056H184.887C184.364 49.3056 183.94 49.7007 183.94 50.1879C183.94 50.6752 184.364 51.0702 184.887 51.0702H194.827C195.35 51.0702 195.773 50.6752 195.773 50.1879C195.773 49.7007 195.35 49.3056 194.827 49.3056Z" fill="#F1F1F1"/>
<path d="M209.026 49.3056H199.087C198.564 49.3056 198.14 49.7007 198.14 50.1879C198.14 50.6752 198.564 51.0702 199.087 51.0702H209.026C209.549 51.0702 209.973 50.6752 209.973 50.1879C209.973 49.7007 209.549 49.3056 209.026 49.3056Z" fill="#8BCE7E"/>
<path d="M218.493 49.3056H213.286C212.764 49.3056 212.34 49.7007 212.34 50.1879C212.34 50.6752 212.764 51.0702 213.286 51.0702H218.493C219.016 51.0702 219.44 50.6752 219.44 50.1879C219.44 49.7007 219.016 49.3056 218.493 49.3056Z" fill="#8BCE7E"/>
<path d="M206.66 58.1286H184.887C184.364 58.1286 183.94 58.5236 183.94 59.0109C183.94 59.4981 184.364 59.8932 184.887 59.8932H206.66C207.183 59.8932 207.606 59.4981 207.606 59.0109C207.606 58.5236 207.183 58.1286 206.66 58.1286Z" fill="#8BCE7E"/>
<path d="M225.593 58.1286H210.92C210.397 58.1286 209.973 58.5236 209.973 59.0109C209.973 59.4981 210.397 59.8932 210.92 59.8932H225.593C226.116 59.8932 226.54 59.4981 226.54 59.0109C226.54 58.5236 226.116 58.1286 225.593 58.1286Z" fill="#8BCE7E"/>
<path d="M206.66 66.9515H184.887C184.364 66.9515 183.94 67.3465 183.94 67.8338C183.94 68.3211 184.364 68.7161 184.887 68.7161H206.66C207.183 68.7161 207.606 68.3211 207.606 67.8338C207.606 67.3465 207.183 66.9515 206.66 66.9515Z" fill="#8BCE7E"/>
<path d="M239.793 66.9515H210.92C210.397 66.9515 209.973 67.3465 209.973 67.8338C209.973 68.3211 210.397 68.7161 210.92 68.7161H239.793C240.315 68.7161 240.739 68.3211 240.739 67.8338C240.739 67.3465 240.315 66.9515 239.793 66.9515Z" fill="#F1F1F1"/>
<path d="M199.56 75.7745H184.887C184.364 75.7745 183.94 76.1695 183.94 76.6568C183.94 77.144 184.364 77.5391 184.887 77.5391H199.56C200.083 77.5391 200.507 77.144 200.507 76.6568C200.507 76.1695 200.083 75.7745 199.56 75.7745Z" fill="#8BCE7E"/>
<path d="M218.493 75.7745H203.82C203.297 75.7745 202.873 76.1695 202.873 76.6568C202.873 77.144 203.297 77.5391 203.82 77.5391H218.493C219.016 77.5391 219.44 77.144 219.44 76.6568C219.44 76.1695 219.016 75.7745 218.493 75.7745Z" fill="#F1F1F1"/>
<path d="M230.326 75.7745H222.753C222.23 75.7745 221.806 76.1695 221.806 76.6568C221.806 77.144 222.23 77.5391 222.753 77.5391H230.326C230.849 77.5391 231.273 77.144 231.273 76.6568C231.273 76.1695 230.849 75.7745 230.326 75.7745Z" fill="#8BCE7E"/>
<path d="M213.76 84.5974H184.887C184.364 84.5974 183.94 84.9924 183.94 85.4797C183.94 85.967 184.364 86.362 184.887 86.362H213.76C214.283 86.362 214.706 85.967 214.706 85.4797C214.706 84.9924 214.283 84.5974 213.76 84.5974Z" fill="#8BCE7E"/>
<path d="M197.193 93.4203H184.887C184.364 93.4203 183.94 93.8154 183.94 94.3026C183.94 94.7899 184.364 95.1849 184.887 95.1849H197.193C197.716 95.1849 198.14 94.7899 198.14 94.3026C198.14 93.8154 197.716 93.4203 197.193 93.4203Z" fill="#F1F1F1"/>
<path fill-rule="evenodd" clip-rule="evenodd" d="M506.985 80.6271H377.294V166.65C377.294 168.356 378.036 169.9 379.235 171.018C380.435 172.136 382.092 172.827 383.922 172.827H500.356C502.187 172.827 503.844 172.136 505.043 171.018C506.243 169.9 506.985 168.356 506.985 166.65V80.6271Z" fill="white" stroke="#141C3A" stroke-width="8"/>
<path fill-rule="evenodd" clip-rule="evenodd" d="M500.356 69.5984H383.922C382.091 69.5984 380.434 70.2893 379.235 71.4062C378.035 72.5237 377.294 74.0676 377.294 75.773V82.3917H506.985V75.773C506.985 74.0678 506.243 72.5241 505.043 71.4067C503.843 70.2895 502.186 69.5984 500.356 69.5984Z" fill="#141C3A" stroke="#141C3A" stroke-width="8"/>
<path d="M387.47 77.9802C388.646 77.9802 389.6 77.0914 389.6 75.9951C389.6 74.8987 388.646 74.0099 387.47 74.0099C386.294 74.0099 385.34 74.8987 385.34 75.9951C385.34 77.0914 386.294 77.9802 387.47 77.9802Z" fill="white"/>
<path d="M394.57 77.9802C395.746 77.9802 396.7 77.0914 396.7 75.9951C396.7 74.8987 395.746 74.0099 394.57 74.0099C393.394 74.0099 392.44 74.8987 392.44 75.9951C392.44 77.0914 393.394 77.9802 394.57 77.9802Z" fill="#8BCE7E"/>
<path d="M401.67 77.9802C402.846 77.9802 403.8 77.0914 403.8 75.9951C403.8 74.8987 402.846 74.0099 401.67 74.0099C400.494 74.0099 399.54 74.8987 399.54 75.9951C399.54 77.0914 400.494 77.9802 401.67 77.9802Z" fill="#F1F1F1"/>
<path d="M457.522 148.784C470.593 148.784 481.189 138.909 481.189 126.727C481.189 114.545 470.593 104.67 457.522 104.67C444.452 104.67 433.856 114.545 433.856 126.727C433.856 138.909 444.452 148.784 457.522 148.784Z" stroke="#8BCE7E" stroke-width="9"/>
<path fill-rule="evenodd" clip-rule="evenodd" d="M460.599 102.023H454.919V107.317H460.599V102.023Z" fill="#FFFFFE" stroke="#F1F1F1" stroke-width="8"/>
<path fill-rule="evenodd" clip-rule="evenodd" d="M460.362 146.137H454.682V151.431H460.362V146.137Z" fill="#FFFFFE" stroke="#F1F1F1" stroke-width="8"/>
<path fill-rule="evenodd" clip-rule="evenodd" d="M436.696 124.301H431.016V129.594H436.696V124.301Z" fill="#FFFFFE" stroke="#F1F1F1" stroke-width="8"/>
<path d="M481.189 106.875V123.418" stroke="#141C3A" stroke-width="8" stroke-linecap="square"/>
<path d="M481.189 130.036V146.579" stroke="#141C3A" stroke-width="8" stroke-linecap="square"/>
<path d="M481.189 108.861C482.757 108.861 484.028 107.675 484.028 106.214C484.028 104.752 482.757 103.567 481.189 103.567C479.62 103.567 478.349 104.752 478.349 106.214C478.349 107.675 479.62 108.861 481.189 108.861Z" fill="#141C3A"/>
<path d="M481.189 150.77C482.757 150.77 484.028 149.584 484.028 148.123C484.028 146.661 482.757 145.476 481.189 145.476C479.62 145.476 478.349 146.661 478.349 148.123C478.349 149.584 479.62 150.77 481.189 150.77Z" fill="#141C3A"/>
<path fill-rule="evenodd" clip-rule="evenodd" d="M483.792 124.301H478.112V129.594H483.792V124.301Z" fill="#FFFFFE" stroke="#F1F1F1" stroke-width="8"/>
<path d="M413.266 99.1553H402.38C400.811 99.1553 399.54 100.34 399.54 101.802V111.949C399.54 113.41 400.811 114.595 402.38 114.595H413.266C414.835 114.595 416.106 113.41 416.106 111.949V101.802C416.106 100.34 414.835 99.1553 413.266 99.1553Z" fill="#141C3A"/>
<path d="M413.266 119.007H402.38C400.811 119.007 399.54 120.192 399.54 121.654V131.8C399.54 133.262 400.811 134.447 402.38 134.447H413.266C414.835 134.447 416.106 133.262 416.106 131.8V121.654C416.106 120.192 414.835 119.007 413.266 119.007Z" fill="#F1F1F1"/>
<path d="M413.266 138.859H402.38C400.811 138.859 399.54 140.044 399.54 141.505V151.652C399.54 153.114 400.811 154.299 402.38 154.299H413.266C414.835 154.299 416.106 153.114 416.106 151.652V141.505C416.106 140.044 414.835 138.859 413.266 138.859Z" fill="#8BCE7E"/>
<path d="M574.907 214.295C582.749 214.295 589.107 208.37 589.107 201.06C589.107 193.751 582.749 187.826 574.907 187.826C567.065 187.826 560.707 193.751 560.707 201.06C560.707 208.37 567.065 214.295 574.907 214.295Z" fill="white" stroke="#141C3A" stroke-width="8"/>
<path d="M574.907 208.78C579.482 208.78 583.19 205.324 583.19 201.06C583.19 196.797 579.482 193.34 574.907 193.34C570.332 193.34 566.624 196.797 566.624 201.06C566.624 205.324 570.332 208.78 574.907 208.78Z" fill="white" stroke="#141C3A" stroke-width="8"/>
<path d="M555.974 185.4C558.588 185.4 560.707 183.425 560.707 180.988C560.707 178.552 558.588 176.577 555.974 176.577C553.36 176.577 551.241 178.552 551.241 180.988C551.241 183.425 553.36 185.4 555.974 185.4Z" fill="#FFFFFE" stroke="#141C3A" stroke-width="8"/>
<path fill-rule="evenodd" clip-rule="evenodd" d="M575.364 179.885H535.148C534.886 179.885 534.65 179.984 534.478 180.144C534.307 180.303 534.201 180.524 534.201 180.768V217.824C534.201 219.042 534.731 220.145 535.587 220.943C536.444 221.742 537.627 222.235 538.934 222.235H571.577C572.884 222.235 574.067 221.742 574.924 220.943C575.781 220.145 576.31 219.042 576.31 217.824V180.768C576.31 180.524 576.204 180.303 576.033 180.144C575.862 179.984 575.625 179.885 575.364 179.885Z" fill="white" stroke="#141C3A" stroke-width="8"/>
<path fill-rule="evenodd" clip-rule="evenodd" d="M564.73 191.796H556.211C555.688 191.796 555.214 191.994 554.872 192.313C554.529 192.632 554.317 193.074 554.317 193.561V204.148C554.317 204.636 554.529 205.077 554.872 205.396C555.214 205.715 555.688 205.913 556.211 205.913H564.73C565.253 205.913 565.727 205.715 566.069 205.396C566.412 205.077 566.624 204.636 566.624 204.148V193.561C566.624 193.074 566.412 192.632 566.069 192.313C565.727 191.994 565.253 191.796 564.73 191.796Z" fill="#F1F1F1" stroke="#141C3A" stroke-width="8"/>
<path d="M560.352 180.216V190.252" stroke="#141C3A" stroke-width="8" stroke-linecap="square"/>
<path fill-rule="evenodd" clip-rule="evenodd" d="M507.221 210.148C503.379 210.148 499.9 211.6 497.382 213.947C495.082 216.09 493.584 218.979 493.341 222.191H521.102C520.859 218.979 519.361 216.09 517.061 213.947C514.543 211.6 511.064 210.148 507.221 210.148Z" fill="white" stroke="#141C3A" stroke-width="8.4"/>
<path d="M508.168 211.207C508.168 210.719 507.744 210.324 507.221 210.324C506.699 210.324 506.275 210.719 506.275 211.207V212.31C506.275 212.797 506.699 213.192 507.221 213.192C507.744 213.192 508.168 212.797 508.168 212.31V211.207Z" fill="#141C3A"/>
<path fill-rule="evenodd" clip-rule="evenodd" d="M72.2355 196.208H14.9632C11.1074 196.208 7.61658 197.664 5.08973 200.019C2.56289 202.374 1 205.628 1 209.222C1 212.815 2.56289 216.069 5.08973 218.424C7.61658 220.779 11.1074 222.236 14.9632 222.236H72.2355C72.6276 222.236 72.9826 222.088 73.2395 221.848C73.4965 221.609 73.6554 221.278 73.6554 220.912V218.864C73.6554 218.401 73.4635 217.977 73.1476 217.661C72.8317 217.345 72.392 217.137 71.8965 217.104C68.6204 216.887 66.1851 216.111 64.5524 214.852C62.8319 213.525 61.9402 211.658 61.9402 209.222C61.9402 206.782 62.8339 204.897 64.5741 203.538C66.2187 202.253 68.674 201.438 71.9868 201.16C72.4608 201.108 72.877 200.894 73.1754 200.582C73.4749 200.269 73.6554 199.857 73.6554 199.408V197.531C73.6554 197.166 73.4965 196.835 73.2395 196.595C72.9826 196.356 72.6276 196.208 72.2355 196.208Z" fill="#8BCE7E" stroke="#141C3A" stroke-width="8"/>
<path fill-rule="evenodd" clip-rule="evenodd" d="M69.3449 201.281H14.7264C12.3737 201.281 10.2438 202.17 8.70198 203.607C7.16019 205.044 6.20657 207.029 6.20657 209.222C6.20657 211.414 7.16019 213.399 8.70198 214.836C10.2438 216.273 12.3737 217.162 14.7264 217.162C40.4981 217.162 58.8234 217.208 69.7023 217.3C67.7981 216.82 65.6142 216.141 64.0636 214.657C62.8179 213.464 61.9402 211.766 61.9402 209.222C61.9402 206.653 62.8344 204.948 64.0987 203.76C65.5497 202.396 67.5438 201.731 69.3449 201.281Z" fill="white" stroke="#141C3A" stroke-width="8"/>
<path fill-rule="evenodd" clip-rule="evenodd" d="M13.7621 211.207H61.6033C62.1164 211.207 62.5323 211.602 62.5323 212.089C62.5323 212.576 62.1164 212.971 61.6033 212.971H13.7621C13.249 212.971 12.8331 212.576 12.8331 212.089C12.8331 211.602 13.249 211.207 13.7621 211.207Z" fill="#141C3A"/>
<path fill-rule="evenodd" clip-rule="evenodd" d="M13.7621 205.472H61.6033C62.1164 205.472 62.5323 205.867 62.5323 206.354C62.5323 206.841 62.1164 207.236 61.6033 207.236H13.7621C13.249 207.236 12.8331 206.841 12.8331 206.354C12.8331 205.867 13.249 205.472 13.7621 205.472Z" fill="#141C3A"/>
<path d="M59.2555 152.172C58.0941 151.209 56.9326 150.247 55.7712 149.285C53.9203 147.753 52.0747 146.216 50.2239 144.684C49.7996 144.335 49.3753 143.982 48.9563 143.633C48.9563 144.095 48.9563 144.561 48.9563 145.023C50.1178 144.06 51.2792 143.098 52.4407 142.136C54.2916 140.604 56.1371 139.067 57.988 137.535C58.4123 137.186 58.8366 136.833 59.2555 136.484C59.6692 136.14 59.6639 135.438 59.2555 135.095C58.8153 134.717 58.2001 134.726 57.7547 135.095C56.5932 136.057 55.4318 137.019 54.2703 137.982C52.4195 139.514 50.5739 141.05 48.723 142.582C48.2987 142.931 47.8745 143.285 47.4555 143.633C47.0471 143.972 47.0471 144.684 47.4555 145.023C48.6169 145.985 49.7784 146.947 50.9398 147.91C52.7907 149.442 54.6363 150.979 56.4872 152.51C56.9114 152.859 57.3357 153.213 57.7547 153.561C58.1683 153.905 58.8525 153.969 59.2555 153.561C59.6268 153.188 59.6957 152.54 59.2555 152.172Z" fill="#141C3A"/>
<path d="M76.9417 136.486C78.1031 137.449 79.2646 138.411 80.426 139.374C82.2769 140.905 84.1225 142.442 85.9734 143.974C86.3976 144.323 86.8219 144.676 87.2409 145.025C87.2409 144.563 87.2409 144.097 87.2409 143.635C86.0794 144.598 84.918 145.56 83.7566 146.523C81.9057 148.054 80.0601 149.591 78.2092 151.123C77.7849 151.472 77.3607 151.825 76.9417 152.174C76.528 152.518 76.5333 153.22 76.9417 153.564C77.3819 153.942 77.9971 153.932 78.4426 153.564C79.604 152.601 80.7654 151.639 81.9269 150.676C83.7778 149.145 85.6233 147.608 87.4742 146.076C87.8985 145.727 88.3228 145.374 88.7417 145.025C89.1501 144.686 89.1501 143.974 88.7417 143.635C87.5803 142.673 86.4189 141.711 85.2574 140.748C83.4065 139.216 81.561 137.68 79.7101 136.148C79.2858 135.799 78.8615 135.446 78.4426 135.097C78.0289 134.753 77.3448 134.689 76.9417 135.097C76.5705 135.47 76.5015 136.118 76.9417 136.486Z" fill="#141C3A"/>
<path d="M64.3163 157.954C64.6345 157.07 64.9474 156.186 65.2656 155.298C66.024 153.172 66.7824 151.051 67.5407 148.924C68.4529 146.361 69.3651 143.803 70.2826 141.24C71.0728 139.026 71.863 136.811 72.6532 134.597C73.0297 133.522 73.454 132.451 73.804 131.361C73.8093 131.347 73.8146 131.332 73.8199 131.317C73.995 130.831 73.6184 130.222 73.0775 130.109C72.4941 129.987 71.9585 130.271 71.7728 130.797C71.4546 131.68 71.1417 132.564 70.8235 133.453C70.0651 135.579 69.3068 137.7 68.5484 139.826C67.6362 142.389 66.724 144.947 65.8065 147.51C65.0163 149.725 64.2261 151.939 63.4359 154.154C63.0594 155.224 62.6351 156.294 62.2851 157.384C62.2798 157.399 62.2745 157.414 62.2692 157.429C62.0942 157.915 62.4707 158.524 63.0116 158.637C63.595 158.759 64.1307 158.475 64.3163 157.954Z" fill="#141C3A"/>
</g>
<defs>
<clipPath id="clip0_14_314">
<rect width="590.107" height="223.236" fill="white"/>
</clipPath>
</defs>
</svg>
