<svg width="76" height="80" viewBox="0 0 76 80" fill="none" xmlns="http://www.w3.org/2000/svg">
<g clip-path="url(#clip0_17_530)">
<path d="M0 0H76V80H0V0Z" fill="#F7DF1E"/>
<path d="M19.9832 66.8539L25.7992 63.1489C26.9212 65.243 27.9419 67.0148 30.3902 67.0148C32.7371 67.0148 34.2166 66.0484 34.2166 62.2897V36.7278H41.3587V62.396C41.3587 70.1826 37.0226 73.7269 30.6964 73.7269C24.983 73.7269 21.6665 70.6121 19.983 66.8532" fill="black"/>
<path d="M45.2381 66.0482L51.0534 62.5039C52.5843 65.1356 54.5739 67.0686 58.0938 67.0686C61.0531 67.0686 62.9402 65.5112 62.9402 63.3631C62.9402 60.7855 61.0017 59.8725 57.7366 58.3693L55.9516 57.5632C50.7986 55.2545 47.3805 52.3547 47.3805 46.2327C47.3805 40.5941 51.4617 36.2979 57.8389 36.2979C62.3794 36.2979 65.6443 37.9627 67.9908 42.3126L62.43 46.0714C61.2056 43.7625 59.8796 42.8497 57.839 42.8497C55.7473 42.8497 54.4208 44.2459 54.4208 46.0714C54.4208 48.3269 55.7473 49.2401 58.808 50.6364L60.5934 51.4418C66.6643 54.1808 70.0825 56.9729 70.0825 63.2557C70.0825 70.0224 65.032 73.7274 58.247 73.7274C51.615 73.7274 47.3294 70.3982 45.2381 66.0482Z" fill="black"/>
</g>
<defs>
<clipPath id="clip0_17_530">
<rect width="76" height="80" fill="white"/>
</clipPath>
</defs>
</svg>
