<svg width="76" height="60" viewBox="0 0 76 60" fill="none" xmlns="http://www.w3.org/2000/svg">
<path d="M65.2612 34.3936C62.6171 34.4082 60.3191 35.0785 58.3949 36.0694C57.6889 34.5977 56.9829 33.2862 56.8583 32.3244C56.7198 31.2024 56.5537 30.5175 56.7198 29.1769C56.886 27.8363 57.6335 25.9273 57.6197 25.7816C57.6058 25.6359 57.4535 24.951 55.9308 24.9365C54.408 24.9219 53.0929 25.2425 52.9406 25.665C52.7883 26.0876 52.4976 27.0494 52.3038 28.0403C52.0408 29.4975 49.2583 34.6997 47.6663 37.4246C47.1541 36.3609 46.7111 35.4283 46.6142 34.6851C46.4758 33.563 46.3096 32.8782 46.4758 31.5375C46.6419 30.1969 47.3894 28.288 47.3756 28.1423C47.3617 27.9966 47.2095 27.3117 45.6867 27.2971C44.1639 27.2825 42.8488 27.6031 42.6965 28.0257C42.5443 28.4483 42.3781 29.4392 42.0597 30.4009C41.7413 31.3627 38.0452 40.0476 37.0761 42.2916C36.5778 43.4428 36.1486 44.3609 35.8441 44.9875C35.8441 44.9875 35.8302 45.0312 35.7887 45.104C35.5257 45.6432 35.3734 45.9346 35.3734 45.9346C35.3734 45.9346 35.3734 45.9346 35.3734 45.9492C35.1657 46.3426 34.9442 46.7069 34.8335 46.7069C34.7504 46.7069 34.5982 45.6578 34.8612 44.2297C35.4149 41.2133 36.73 36.5212 36.7162 36.3609C36.7162 36.2734 36.9654 35.4574 35.8579 35.0348C34.7781 34.6122 34.3905 35.3117 34.2936 35.3117C34.1967 35.3117 34.1275 35.5594 34.1275 35.5594C34.1275 35.5594 35.3319 30.2844 31.8295 30.2844C29.6422 30.2844 26.6244 32.8053 25.1293 35.0785C24.188 35.6177 22.1807 36.7689 20.035 38.0075C19.2182 38.4884 18.3738 38.9692 17.5847 39.421C17.5293 39.3627 17.4739 39.2898 17.4186 39.2315C13.1825 34.4665 5.34716 31.1004 5.6794 24.7033C5.80399 22.3718 6.56538 16.2516 20.7271 8.81987C32.3832 2.77251 41.6583 4.44829 43.2641 8.16414C45.5621 13.4683 38.2943 23.319 26.2506 24.747C21.6546 25.2862 19.2459 23.421 18.6368 22.7215C18 21.9929 17.9031 21.9492 17.6677 22.0949C17.2801 22.3135 17.5293 22.9692 17.6677 23.3481C18.0277 24.339 19.5089 26.0876 22.0146 26.9474C24.2295 27.7051 29.6146 28.1277 36.1348 25.4756C43.4302 22.5029 49.1337 14.2406 47.4586 7.31896C45.7836 0.295283 34.7089 -2.02166 24.2295 1.8982C18 4.22971 11.2444 7.90184 6.38541 12.6814C0.612737 18.3645 -0.300924 23.3044 0.0728464 25.3736C1.41565 32.7179 11.0368 37.4975 14.8852 41.0385C14.6914 41.155 14.5115 41.257 14.3592 41.3445C12.435 42.3499 5.09798 46.3864 3.27066 50.6559C1.19416 55.4938 3.6029 58.962 5.19489 59.4283C10.137 60.8709 15.2175 58.2771 17.9446 53.9929C20.6718 49.7088 20.3395 44.1423 19.0798 41.5922C19.0659 41.563 19.0521 41.5339 19.0244 41.5048C19.5228 41.1987 20.035 40.8782 20.5333 40.5722C21.5162 39.9601 22.4852 39.3918 23.3158 38.9255C22.8452 40.2807 22.4991 41.8982 22.333 44.2297C22.1253 46.9692 23.1912 50.5248 24.5894 51.9237C25.2124 52.5357 25.9461 52.5503 26.4167 52.5503C28.0503 52.5503 28.784 51.1222 29.6007 49.4319C30.5974 47.3627 31.4973 44.9583 31.4973 44.9583C31.4973 44.9583 30.3759 51.4574 33.4215 51.4574C34.5289 51.4574 35.6503 49.9419 36.1486 49.1696V49.1842C36.1486 49.1842 36.1763 49.1405 36.2317 49.0385C36.3424 48.849 36.4116 48.7324 36.4116 48.7324V48.7033C36.8546 47.8873 37.8514 46.0366 39.3326 42.9619C41.243 38.9984 43.0841 34.0439 43.0841 34.0439C43.0841 34.0439 43.2503 35.2534 43.8178 37.2643C44.1501 38.4446 44.8422 39.7416 45.396 40.9947C44.953 41.6505 44.6761 42.0148 44.6761 42.0148C44.6761 42.0148 44.6761 42.0148 44.69 42.0293C44.33 42.5248 43.9424 43.064 43.5133 43.5885C42.0044 45.4829 40.2047 47.6541 39.9555 48.2807C39.6648 49.0239 39.7341 49.563 40.2878 50.0002C40.6892 50.3208 41.4091 50.3645 42.1428 50.3208C43.4994 50.2188 44.4546 49.8691 44.9253 49.6505C45.659 49.3736 46.5173 48.951 47.3202 48.3244C48.8014 47.1732 49.7013 45.5266 49.6182 43.3554C49.5767 42.1605 49.2029 40.9656 48.7461 39.8436C48.8845 39.6395 49.0091 39.4355 49.1475 39.2315C51.4871 35.6323 53.3005 31.6833 53.3005 31.6833C53.3005 31.6833 53.4667 32.8927 54.0342 34.9037C54.3111 35.9237 54.8787 37.0312 55.377 38.1095C53.1759 39.9893 51.8193 42.1751 51.3348 43.6031C50.4626 46.2552 51.141 47.4501 52.4284 47.727C53.0098 47.8581 53.8404 47.5667 54.4495 47.2898C55.2248 47.0275 56.1384 46.5758 57.0106 45.9055C58.4918 44.7543 59.9177 43.1514 59.8346 40.9802C59.7931 39.9893 59.5439 39.013 59.1978 38.0658C61.0667 37.2497 63.4754 36.798 66.5486 37.1769C73.1381 37.9929 74.4393 42.3208 74.1902 44.1423C73.941 45.9638 72.5566 46.9547 72.0998 47.2607C71.643 47.5667 71.4907 47.6687 71.5322 47.8873C71.5876 48.2079 71.8091 48.1933 72.1967 48.135C72.7366 48.033 75.6575 46.6632 75.7821 43.3117C75.9898 39.0275 72.1136 34.3499 65.2612 34.3936ZM14.4284 52.4337C12.2412 54.9401 9.19561 55.8873 7.8805 55.0858C6.46847 54.2261 7.02221 50.5248 9.70782 47.8727C11.3413 46.2552 13.4455 44.7543 14.8437 43.8363C15.1621 43.6323 15.6328 43.3408 16.2004 42.9765C16.2973 42.9182 16.3526 42.8891 16.3526 42.8891C16.4634 42.8162 16.5741 42.7434 16.6849 42.6705C17.6677 46.4592 16.7264 49.7962 14.4284 52.4337ZM30.3483 41.0385C29.5869 42.9911 27.9949 47.9893 27.0259 47.7124C26.1953 47.4793 25.683 43.6906 26.8597 39.9456C27.455 38.0658 28.7147 35.8217 29.4484 34.9474C30.639 33.5485 31.9541 33.0822 32.2725 33.6505C32.6739 34.3936 30.8189 39.8144 30.3483 41.0385ZM43.4856 47.6541C43.1672 47.829 42.8626 47.9456 42.7242 47.8581C42.6273 47.7998 42.8626 47.5667 42.8626 47.5667C42.8626 47.5667 44.51 45.7015 45.1606 44.8563C45.5344 44.3609 45.9774 43.778 46.4481 43.1222V43.3117C46.4481 45.5412 44.3993 47.0421 43.4856 47.6541ZM53.6189 45.2206C53.3836 45.0457 53.4251 44.4629 54.2142 42.6414C54.5188 41.9273 55.2386 40.7324 56.4707 39.5813C56.6091 40.0476 56.706 40.4993 56.6922 40.9219C56.6783 43.7343 54.7679 44.7834 53.6189 45.2206Z" fill="#CD6799"/>
</svg>
