<svg width="76" height="80" viewBox="0 0 76 80" fill="none" xmlns="http://www.w3.org/2000/svg">
<path d="M70.9736 15.365L39.7618 74.1143C39.1172 75.327 37.4618 75.3343 36.8075 74.1273L4.97705 15.3705C4.26455 14.055 5.33282 12.4618 6.7488 12.728L37.9943 18.607C38.1936 18.6445 38.3977 18.6442 38.5968 18.606L69.1887 12.7365C70.6 12.4658 71.6737 14.047 70.9736 15.365Z" fill="url(#paint0_linear_17_535)"/>
<path d="M52.878 5.01726L29.7804 9.78126C29.5958 9.81928 29.4284 9.92081 29.3047 10.0699C29.1809 10.219 29.1077 10.4071 29.0966 10.6048L27.6759 35.8643C27.6426 36.4593 28.1616 36.921 28.713 36.787L35.1438 35.225C35.7457 35.0788 36.2893 35.6368 36.1656 36.2735L34.2551 46.1218C34.1264 46.7843 34.7175 47.3513 35.3324 47.1548L39.3044 45.8843C39.9202 45.6875 40.5118 46.256 40.3817 46.9193L37.3455 62.3885C37.1555 63.356 38.3781 63.8835 38.888 63.054L39.2286 62.5L58.0498 22.962C58.3649 22.3 57.8218 21.5453 57.1306 21.6855L50.5115 23.0303C49.8893 23.1565 49.3601 22.5468 49.5356 21.906L53.856 6.14101C54.0317 5.49901 53.5007 4.88876 52.878 5.01726Z" fill="url(#paint1_linear_17_535)"/>
<defs>
<linearGradient id="paint0_linear_17_535" x1="4.19979" y1="10.6282" x2="45.6648" y2="64.1253" gradientUnits="userSpaceOnUse">
<stop stop-color="#41D1FF"/>
<stop offset="1" stop-color="#BD34FE"/>
</linearGradient>
<linearGradient id="paint1_linear_17_535" x1="36.1992" y1="6.3105" x2="43.9675" y2="56.9354" gradientUnits="userSpaceOnUse">
<stop stop-color="#FFEA83"/>
<stop offset="0.0833" stop-color="#FFDD35"/>
<stop offset="1" stop-color="#FFA800"/>
</linearGradient>
</defs>
</svg>
