<svg width="74" height="83" viewBox="0 0 74 83" fill="none" xmlns="http://www.w3.org/2000/svg">
<g clip-path="url(#clip0_17_571)" filter="url(#filter0_d_17_571)">
<path d="M49.941 7.79198C49.941 5.59458 47.7883 5.59455 46.8315 5.86923C48.1709 4.66065 49.7417 4.95367 50.2997 5.3199L63.2353 12.5687C64.4678 13.2594 65.2496 14.6965 65.2496 16.2714V63.9577C65.2496 65.5537 64.447 67.0063 63.1894 67.6858L51.0175 74.2635C50.1801 74.6753 48.3623 75.6917 46.8315 74.2632C48.7451 74.6755 49.7815 73.119 49.941 72.066V7.79198Z" fill="url(#paint0_linear_17_571)"/>
<path d="M46.987 5.82975C48.0024 5.60042 49.9414 5.70678 49.9414 7.79213V24.2063L10.7235 58.1133C10.038 58.706 9.07325 58.6075 8.48938 57.8855L4.44741 52.887C3.8142 52.104 3.85851 50.8782 4.54605 50.1582L46.8317 5.86938L46.987 5.82975Z" fill="url(#paint1_linear_17_571)"/>
<path d="M49.9414 55.927L10.7235 22.02C10.038 21.4274 9.07325 21.5257 8.48938 22.2478L4.44741 27.2463C3.8142 28.0293 3.85851 29.255 4.54605 29.9752L46.8317 74.264C48.7453 74.676 49.782 73.1195 49.9414 72.0665V55.927Z" fill="url(#paint2_linear_17_571)"/>
</g>
<defs>
<filter id="filter0_d_17_571" x="0" y="0" width="78" height="88" filterUnits="userSpaceOnUse" color-interpolation-filters="sRGB">
<feFlood flood-opacity="0" result="BackgroundImageFix"/>
<feColorMatrix in="SourceAlpha" type="matrix" values="0 0 0 0 0 0 0 0 0 0 0 0 0 0 0 0 0 0 127 0" result="hardAlpha"/>
<feOffset dy="4"/>
<feGaussianBlur stdDeviation="2"/>
<feComposite in2="hardAlpha" operator="out"/>
<feColorMatrix type="matrix" values="0 0 0 0 0 0 0 0 0 0 0 0 0 0 0 0 0 0 0.25 0"/>
<feBlend mode="normal" in2="BackgroundImageFix" result="effect1_dropShadow_17_571"/>
<feBlend mode="normal" in="SourceGraphic" in2="effect1_dropShadow_17_571" result="shape"/>
</filter>
<linearGradient id="paint0_linear_17_571" x1="56.0406" y1="5" x2="56.0406" y2="75" gradientUnits="userSpaceOnUse">
<stop stop-color="#32B5F1"/>
<stop offset="1" stop-color="#2B9FED"/>
</linearGradient>
<linearGradient id="paint1_linear_17_571" x1="49.9414" y1="13.835" x2="1.5466" y2="49.3794" gradientUnits="userSpaceOnUse">
<stop stop-color="#0F6FB3"/>
<stop offset="0.270551" stop-color="#1279B7"/>
<stop offset="0.421376" stop-color="#1176B5"/>
<stop offset="0.618197" stop-color="#0E69AC"/>
<stop offset="0.855344" stop-color="#0F70AF"/>
<stop offset="1" stop-color="#0F6DAD"/>
</linearGradient>
<linearGradient id="paint2_linear_17_571" x1="6.52704" y1="24.9597" x2="54.703" y2="59.8631" gradientUnits="userSpaceOnUse">
<stop stop-color="#1791D2"/>
<stop offset="1" stop-color="#1173C5"/>
</linearGradient>
<clipPath id="clip0_17_571">
<rect width="70" height="80" fill="white" transform="translate(4)"/>
</clipPath>
</defs>
</svg>
